<?xml version="1.0" standalone="no"?>
<!DOCTYPE svg PUBLIC "-//W3C//DTD SVG 1.1//EN" "http://www.w3.org/Graphics/SVG/1.1/DTD/svg11.dtd" >
<svg xmlns="http://www.w3.org/2000/svg">
<metadata></metadata>
<defs>
<font id="caecilia_lt_std55_roman" horiz-adv-x="1138" >
<font-face units-per-em="2048" ascent="1575" descent="-473" />
<missing-glyph horiz-adv-x="569" />
<glyph horiz-adv-x="0" />
<glyph unicode="&#xd;" horiz-adv-x="569" />
<glyph unicode=" "  horiz-adv-x="569" />
<glyph unicode="&#x09;" horiz-adv-x="569" />
<glyph unicode="&#xa0;" horiz-adv-x="569" />
<glyph unicode="!" horiz-adv-x="643" d="M195 102q0 53 36.5 90t90.5 37q53 0 90 -36.5t37 -90.5q0 -53 -37 -90t-90 -37t-90 37t-37 90zM236 1575h188l-21 -1092h-147z" />
<glyph unicode="&#x22;" horiz-adv-x="909" d="M172 1485q0 47 19.5 76.5t74.5 29.5t74.5 -29.5t19.5 -76.5q0 -49 -2 -85t-6 -71l-24 -250q-2 -37 -12.5 -63.5t-49.5 -26.5t-48 26.5t-13 63.5l-25 250q-4 35 -6 71t-2 85zM549 1485q0 47 19.5 76.5t74.5 29.5t74.5 -29.5t19.5 -76.5q0 -49 -2 -85t-6 -71l-24 -250 q-2 -37 -12.5 -63.5t-49.5 -26.5t-48 26.5t-13 63.5l-25 250q-4 35 -6 71t-2 85z" />
<glyph unicode="#" d="M41 455v116h252l63 291h-225v117h250l100 455h129l-100 -455h231l101 455h129l-101 -455h228v-117h-252l-64 -291h226v-116h-250l-101 -455h-129l101 455h-232l-100 -455h-129l100 455h-227zM422 571h231l64 291h-232z" />
<glyph unicode="$" d="M57 1049q0 94 37 169.5t100.5 129t145.5 82t174 28.5v262h129v-262q33 0 82 -5t100.5 -13t98.5 -19.5t77 -23.5v-289h-151v174q-49 16 -103.5 26.5t-107.5 10.5l-4 -510q86 -23 167 -46.5t142.5 -65.5t99 -109.5t37.5 -175.5q0 -102 -36.5 -180t-99 -131.5t-144.5 -85 t-174 -40.5v-262h-129v262q-31 0 -94.5 5.5t-132 14.5t-128 21.5t-84.5 26.5v317h168v-198q61 -23 123 -34t148 -13l4 542q-109 20 -192 51t-139 77t-85 111t-29 153zM233 1065q0 -66 33 -108t78 -68.5t91 -39.5t71 -18l4 488q-23 0 -69 -8t-92 -36t-81 -78t-35 -132z M627 121q37 2 85 16.5t91 45t72.5 81.5t29.5 127q0 63 -24.5 105.5t-63.5 70t-88 43t-98 25.5z" />
<glyph unicode="%" horiz-adv-x="1705" d="M84 1120q0 74 24.5 136.5t69.5 106.5t106.5 69.5t135.5 25.5q70 0 129 -25.5t102 -69.5t67.5 -106.5t24.5 -136.5t-24.5 -136t-67.5 -106t-102 -70t-129 -26q-74 0 -135.5 26t-106.5 70t-69.5 106.5t-24.5 135.5zM236 1120q0 -41 11 -78.5t32.5 -66.5t55.5 -46.5 t79 -17.5t78.5 17.5t55 46.5t33 66.5t11.5 78.5t-11.5 79t-33 66.5t-55 46t-78.5 17.5t-79 -17.5t-55.5 -46t-32.5 -66.5t-11 -79zM334 -45l921 1593l105 -69l-922 -1594zM956 313q0 74 25 136.5t70 106.5t106.5 69.5t134.5 25.5q70 0 129.5 -25.5t102.5 -69.5t67.5 -106.5 t24.5 -136.5t-24.5 -136t-67.5 -106t-102.5 -70t-129.5 -26q-74 0 -135 26t-106 70t-70 106.5t-25 135.5zM1108 313q0 -41 11 -78.5t33 -66.5t55.5 -46.5t78.5 -17.5t79 17.5t55.5 46.5t32.5 66.5t11 78.5t-11 79t-32.5 66.5t-55.5 46t-79 17.5t-78.5 -17.5t-55.5 -46 t-33 -66.5t-11 -79z" />
<glyph unicode="&#x26;" horiz-adv-x="1593" d="M147 371q0 82 25 144.5t66 111.5t97 90t118 82q-57 57 -95.5 103t-60 86t-29.5 78t-8 79q0 16 7 67.5t42 105.5t107.5 97t206.5 43q70 0 131 -18.5t106 -55t70.5 -92t25.5 -131.5q0 -63 -27.5 -116.5t-69.5 -98.5t-93 -83t-98 -68l415 -420q39 63 71 147t32 211h-158v129 h459v-129h-162q0 -68 -13.5 -133t-35 -124.5t-47 -110t-49.5 -84.5l98 -88q43 -39 80 -54.5t67 -15.5q16 0 32 2t30 4v-129q-16 -2 -35.5 -4t-42.5 -2q-59 0 -101 12t-77 36t-68 55.5t-73 68.5q-98 -102 -208 -146.5t-251 -44.5q-133 0 -225.5 40t-149.5 99.5t-83 128 t-26 128.5zM315 399q0 -66 26 -118t72 -88.5t109.5 -57t139.5 -20.5q68 0 122 15t94 37.5t67.5 48.5t45.5 44l-448 449q-51 -33 -93 -65t-72 -67.5t-46.5 -78.5t-16.5 -99zM412 1145q0 -41 16 -77t41 -68.5t53.5 -60t55.5 -54.5q51 33 93 63.5t71.5 62t46 67.5t16.5 83 q0 84 -55.5 126t-133.5 42q-88 0 -146 -47t-58 -137z" />
<glyph unicode="'" horiz-adv-x="569" d="M190 1485q0 47 19.5 76.5t75.5 29.5q55 0 74.5 -29.5t19.5 -76.5q0 -49 -2 -85t-6 -71l-25 -250q-2 -37 -12 -63.5t-49 -26.5t-48.5 26.5t-13.5 63.5l-24 250q-4 35 -6.5 71t-2.5 85z" />
<glyph unicode="(" horiz-adv-x="643" d="M154 530q0 158 22.5 298.5t68.5 271.5t113.5 258t159.5 256l117 -78q-74 -92 -131.5 -216t-96 -260t-58 -273.5t-19.5 -256.5q0 -121 21.5 -259t61.5 -274t96 -259t126 -213l-117 -78q-92 129 -159.5 254t-113.5 256t-68.5 272.5t-22.5 300.5z" />
<glyph unicode=")" horiz-adv-x="643" d="M8 -475q74 92 131.5 216t96 260t58 273.5t19.5 255.5q0 119 -21.5 258.5t-61.5 275.5t-96 259t-126 213l117 78q92 -129 159.5 -254t113.5 -256t68.5 -272.5t22.5 -301.5q0 -158 -22.5 -298t-68.5 -271t-113.5 -258t-159.5 -256z" />
<glyph unicode="*" horiz-adv-x="718" d="M53 1155l238 100l-238 99l58 104l213 -141l-29 258h129l-25 -258l209 141l58 -104l-236 -99l236 -100l-58 -104l-209 137l25 -256h-129l29 256l-213 -137z" />
<glyph unicode="+" horiz-adv-x="1228" d="M96 449v139h449v448h139v-448h449v-139h-449v-449h-139v449h-449z" />
<glyph unicode="," horiz-adv-x="569" d="M139 -295l70 84q23 29 34 57.5t11 75.5q0 33 -10.5 51.5t-32.5 42.5q-25 29 -38 48.5t-13 54.5q0 49 32.5 79.5t83.5 30.5q78 0 116 -61.5t38 -140.5q0 -106 -38 -187.5t-113 -152.5l-62 -60z" />
<glyph unicode="-" horiz-adv-x="833" d="M152 485v152h530v-152h-530z" />
<glyph unicode="." horiz-adv-x="569" d="M158 102q0 53 36.5 90t90.5 37q53 0 90 -36.5t37 -90.5q0 -53 -37 -90t-90 -37t-90 37t-37 90z" />
<glyph unicode="/" horiz-adv-x="757" d="M-57 -109l669 1700l129 -49l-669 -1700z" />
<glyph unicode="0" d="M70 692q0 127 23.5 263.5t80.5 248t153.5 183t241.5 71.5q150 0 247 -69.5t153.5 -175t78 -232.5t21.5 -240q0 -127 -23.5 -263t-81 -247.5t-153.5 -183.5t-242 -72q-100 0 -176 32t-131 86t-92 127t-59.5 152t-31.5 161.5t-9 158.5zM246 717q0 -78 11 -182.5t46 -197.5 t98.5 -157.5t167.5 -64.5t168 64.5t98.5 157.5t46 197.5t11.5 182.5t-11.5 182.5t-46 197.5t-98.5 157.5t-168 64.5t-167.5 -64.5t-98.5 -157.5t-46 -197.5t-11 -182.5z" />
<glyph unicode="1" d="M123 1141l475 293h131l-8 -1305h295v-129h-750v129h287l8 1135h-4q-4 -4 -13 -13.5t-22 -17.5l-323 -209z" />
<glyph unicode="2" d="M98 0v119l103 92q4 2 33.5 28.5t73.5 68.5t98.5 95.5t107.5 109.5t100.5 110.5t77.5 99.5q29 43 52.5 82t41 80t26.5 86t9 98q0 51 -16.5 97t-49 80t-81.5 53.5t-113 19.5q-90 0 -143 -31t-84 -75t-44.5 -93t-21.5 -88h-168q0 39 20.5 109.5t73 141.5t139.5 123t222 52 q106 0 188 -30.5t136.5 -85t82 -127t27.5 -158.5q0 -119 -54 -234.5t-130 -216t-157 -179.5t-132 -124l-188 -166v-4q20 2 38.5 4t39.5 2h634v-139h-942z" />
<glyph unicode="3" d="M113 1077q0 63 25.5 131t80.5 123t142.5 91t209.5 36q102 0 177 -27.5t124.5 -74.5t73 -109.5t23.5 -132.5q0 -96 -33 -161.5t-79 -106.5t-98 -60.5t-89 -25.5v-4q78 -8 143.5 -34t112.5 -69t73.5 -105.5t26.5 -146.5q0 -74 -28.5 -149.5t-92 -137t-167 -100.5 t-253.5 -39q-141 0 -238 25t-130 51v166q31 -23 73.5 -42t92 -32.5t99.5 -20.5t97 -7q186 0 278.5 83t92.5 210q0 90 -42 141t-104.5 76.5t-134 32t-131.5 6.5h-59v139h57q88 0 155.5 27.5t112 70.5t67 95.5t22.5 103.5q0 98 -67 158.5t-175 60.5q-53 0 -103.5 -16.5 t-89.5 -47t-62.5 -75.5t-23.5 -103h-159z" />
<glyph unicode="4" d="M29 430v129l622 875h189l-4 -865h274v-139h-274l-5 -301h170v-129h-495v129h166l4 301h-647zM201 563q39 6 82 6h393l4 674h-4z" />
<glyph unicode="5" d="M135 29v151q18 -10 55 -21.5t80 -20.5t88 -16t84 -7q119 0 194 32.5t118 80.5t58 103.5t15 98.5q0 80 -34.5 134t-90 90t-126 55.5t-143.5 29t-140.5 10.5t-116.5 1l8 684h758v-140h-598l-8 -405q111 -4 229.5 -21.5t216 -64.5t160 -132t62.5 -227q0 -84 -30 -167.5 t-95.5 -150.5t-170 -109t-251.5 -42q-104 0 -185.5 14.5t-136.5 39.5z" />
<glyph unicode="6" d="M92 633q0 178 42 329.5t128 262t218 172t313 61.5q47 0 110.5 -5t114.5 -19l-14 -140q-35 10 -92.5 17.5t-118.5 7.5q-133 0 -232.5 -48t-165 -130t-98.5 -192.5t-33 -235.5q29 31 62.5 61.5t76.5 54t97.5 38t124.5 14.5q106 0 186 -34t132 -92.5t78 -139t26 -173.5 q0 -66 -23 -146.5t-76 -152t-142 -120t-222 -48.5q-111 0 -202 43t-155.5 126t-99.5 206t-35 283zM268 567q0 -76 16.5 -155.5t54.5 -146t99.5 -108.5t151.5 -42q55 0 106.5 20.5t92 60.5t65.5 101t25 145q0 55 -15.5 108.5t-51.5 95.5t-91 68.5t-135 26.5q-61 0 -112.5 -18 t-91.5 -44t-70 -56.5t-44 -55.5z" />
<glyph unicode="7" d="M119 1282v152h901v-117l-490 -998q-55 -113 -104 -195.5t-76 -123.5h-200q35 49 87 126t111 193l440 873q23 43 52 90h-721z" />
<glyph unicode="8" d="M86 338q0 82 27.5 142.5t75 106.5t109.5 80.5t134 65.5q-133 59 -215 143.5t-82 221.5q0 76 27.5 141.5t83 114.5t136.5 76.5t187 27.5q84 0 164 -18.5t141.5 -59.5t98.5 -104.5t37 -151.5q0 -70 -21.5 -124t-60.5 -99t-94.5 -83t-122.5 -70q66 -35 127 -69t109 -77 t77 -101.5t29 -144.5q0 -184 -127 -282.5t-357 -98.5q-248 0 -365.5 100.5t-117.5 262.5zM262 348q0 -61 22.5 -105t63.5 -73t97.5 -42t123.5 -13q90 0 150.5 23.5t97.5 59t52.5 80t15.5 84.5q0 20 -6.5 46t-24.5 55t-53 60.5t-92 62.5l-146 78q-49 -25 -101 -52.5 t-97.5 -65.5t-74 -86t-28.5 -112zM303 1098q0 -45 15.5 -80t39 -62.5t53 -48t58.5 -35.5l106 -57l130 74q137 80 137 219q0 59 -24.5 99t-62.5 64.5t-87.5 36t-98.5 11.5t-97 -13.5t-86 -40t-60.5 -68.5t-22.5 -99z" />
<glyph unicode="9" d="M92 991q0 66 22.5 147t76 152.5t142.5 119.5t222 48q111 0 201 -43t154.5 -126t100.5 -205.5t36 -282.5q0 -178 -42 -330t-128 -262.5t-218.5 -172t-312.5 -61.5q-47 0 -110.5 5.5t-114.5 19.5l14 139q35 -10 92.5 -17t118.5 -7q133 0 232.5 48t165 130t98 192.5 t32.5 235.5q-29 -31 -62.5 -61.5t-76.5 -54t-97 -38t-124 -14.5q-106 0 -186 34t-132.5 92t-78 139t-25.5 173zM260 991q0 -55 15.5 -108.5t51 -95.5t91 -68.5t135.5 -26.5q61 0 112.5 18.5t91.5 44t68.5 56t44.5 55.5q0 76 -16 156t-54 146.5t-99.5 108.5t-151.5 42 q-55 0 -106.5 -20.5t-92.5 -60.5t-65.5 -102.5t-24.5 -144.5z" />
<glyph unicode=":" horiz-adv-x="569" d="M158 102q0 53 36.5 90t90.5 37q53 0 90 -36.5t37 -90.5q0 -53 -37 -90t-90 -37t-90 37t-37 90zM158 930q0 53 36.5 90t90.5 37q53 0 90 -37t37 -90t-37 -90t-90 -37t-90 37t-37 90z" />
<glyph unicode=";" horiz-adv-x="569" d="M139 -295l70 84q23 29 34 57.5t11 75.5q0 33 -10.5 51.5t-32.5 42.5q-25 29 -38 48.5t-13 54.5q0 49 32.5 79.5t83.5 30.5q78 0 116 -61.5t38 -140.5q0 -106 -38 -187.5t-113 -152.5l-62 -60zM158 930q0 53 36.5 90t90.5 37q53 0 90 -37t37 -90t-37 -90t-90 -37t-90 37 t-37 90z" />
<glyph unicode="&#x3c;" horiz-adv-x="1228" d="M96 455v129l1037 469v-140l-869 -395l869 -395v-139z" />
<glyph unicode="=" horiz-adv-x="1228" d="M96 244v139h1037v-139h-1037zM96 653v140h1037v-140h-1037z" />
<glyph unicode="&#x3e;" horiz-adv-x="1228" d="M96 -16v139l869 395l-869 395v140l1037 -471v-129z" />
<glyph unicode="?" horiz-adv-x="1024" d="M195 1550q78 27 148.5 34t98.5 7q131 0 215 -37.5t132.5 -93t65.5 -119t17 -114.5q0 -68 -20.5 -123t-53 -99t-72.5 -80t-79 -63l-74 -53q-82 -57 -121.5 -93t-39.5 -89q0 -12 8 -39t24 -43l25 -29l-137 -74q-39 39 -63.5 83t-24.5 106q0 45 11 76.5t32.5 58.5t53.5 51.5 t73 54.5l67 46q98 59 156.5 130.5t58.5 161.5q0 45 -15 88t-50 77t-90.5 55.5t-137.5 21.5q-51 0 -100 -11t-96 -28zM252 102q0 53 37 90t90 37t90 -36.5t37 -90.5q0 -53 -37 -90t-90 -37t-90 37t-37 90z" />
<glyph unicode="@" horiz-adv-x="1638" d="M78 719q0 156 56 291t157.5 234t245 156.5t315.5 57.5q150 0 280 -44t225 -125t149.5 -193.5t54.5 -247.5q0 -150 -52.5 -258.5t-129 -178t-165 -102.5t-159.5 -33q-76 0 -109 34t-35 85h-4q-41 -47 -103.5 -83t-141.5 -36q-57 0 -107.5 23t-87.5 66t-58.5 102t-21.5 133 q0 106 37 203.5t98.5 172.5t141 119t165.5 44q152 0 232 -156l37 117h145l-139 -500q-16 -59 -24.5 -91t-8.5 -46q0 -20 13.5 -33.5t54.5 -13.5t84 32.5t78.5 88t59 129t23.5 157.5q0 111 -43 201t-116.5 152.5t-170 96.5t-202.5 34q-133 0 -242.5 -47.5t-188.5 -129 t-123 -189t-44 -230.5q0 -137 47 -246t127 -183.5t185.5 -114.5t222.5 -40q336 0 493 184h168q-39 -74 -101.5 -135t-146.5 -105t-187.5 -70t-225.5 -26q-158 0 -296.5 50.5t-240.5 146.5t-161.5 233.5t-59.5 313.5zM547 618q0 -92 41 -141t112 -49q68 0 123.5 37t94 92 t60 120t21.5 120q0 102 -43 146t-118 44q-66 0 -119 -33.5t-92 -87t-59.5 -119t-20.5 -129.5z" />
<glyph unicode="A" horiz-adv-x="1517" d="M23 0v129h131l532 1305h188l484 -1305h137v-129h-483v129h151l-153 436h-518l-170 -436h172v-129h-471zM543 694h422l-172 477q-12 35 -18.5 56.5t-10.5 42.5h-4q-4 -20 -10.5 -42t-18.5 -57z" />
<glyph unicode="B" horiz-adv-x="1290" d="M94 0v129h156l8 1176h-164v129h500q104 0 170.5 -8.5t128.5 -36.5q82 -39 131 -115t49 -189q0 -143 -80 -226t-198 -103v-4q70 0 137 -22.5t119.5 -67t84 -111t31.5 -152.5q0 -115 -43 -191.5t-114.5 -122.5t-162.5 -65.5t-188 -19.5h-565zM426 129h133q66 0 139.5 4 t136 29.5t103.5 81t41 155.5q0 88 -35 142.5t-90 83t-121.5 38t-130.5 9.5h-172zM430 801h102q68 0 133.5 10t117 38t83 78t31.5 132q0 92 -31.5 142t-77 72.5t-95.5 27t-85 4.5h-174z" />
<glyph unicode="C" horiz-adv-x="1402" d="M102 707q0 150 46.5 286.5t142.5 239t243.5 164t348.5 61.5q57 0 115.5 -6t113.5 -16.5t103.5 -22.5t84.5 -27v-327h-159v225q-37 10 -107.5 22.5t-161.5 12.5q-131 0 -237.5 -38t-183 -112.5t-118.5 -185.5t-42 -256q0 -295 148.5 -453.5t441.5 -158.5q66 0 126 9 t113 21l8 238h160l-8 -348q-31 -14 -80 -25.5t-106.5 -18.5t-115.5 -11.5t-110 -4.5q-176 0 -318 45.5t-241.5 135.5t-153 228t-53.5 323z" />
<glyph unicode="D" horiz-adv-x="1554" d="M88 0v129h156l8 1176h-164v129h645q160 0 293 -42t227.5 -128t146.5 -217.5t52 -309.5q0 -188 -55.5 -327.5t-157.5 -230.5t-248.5 -135t-326.5 -44h-576zM420 129h221q311 0 463 152q72 72 116 189.5t44 266.5q0 143 -44 257t-122 182q-90 78 -195.5 103.5t-251.5 25.5 h-223z" />
<glyph unicode="E" horiz-adv-x="1175" d="M88 0v129h156l8 1176h-164v129h969v-332h-152v203h-477l-4 -504h450v-129h-450l-4 -543h498l12 223h151l-12 -352h-981z" />
<glyph unicode="F" d="M88 0v129h156l8 1176h-164v129h956l7 -338h-152l-6 209h-465l-4 -527h494v-129h-494l-4 -520h182v-129h-514z" />
<glyph unicode="G" horiz-adv-x="1478" d="M102 707q0 150 44 286.5t138.5 239t238 164t343.5 61.5q72 0 139.5 -8t126 -19.5t102.5 -24.5t66 -24v-323h-151v213q-37 18 -116 32.5t-179 14.5q-129 0 -233.5 -38t-178 -112.5t-112.5 -185.5t-39 -256q0 -295 148.5 -453.5t441.5 -158.5q41 0 111.5 7t127.5 23v351 h-176v129h496v-129h-160v-461q-31 -14 -80 -25.5t-106.5 -18.5t-115.5 -11.5t-110 -4.5q-176 0 -318 45.5t-241.5 135.5t-153 228t-53.5 323z" />
<glyph unicode="H" horiz-adv-x="1593" d="M88 0v129h156l8 1176h-164v129h496v-129h-156l-4 -527h745l5 527h-164v129h495v-129h-155l-9 -1176h164v-129h-495v129h155l4 520h-745l-4 -520h164v-129h-496z" />
<glyph unicode="I" horiz-adv-x="684" d="M94 0v129h156l8 1176h-164v129h496v-129h-156l-8 -1176h164v-129h-496z" />
<glyph unicode="J" horiz-adv-x="645" d="M-115 -244q197 94 278 257t83 376l8 916h-166v129h494v-129h-152l-8 -912q-2 -156 -28.5 -271.5t-84 -204.5t-148.5 -157.5t-222 -132.5z" />
<glyph unicode="K" horiz-adv-x="1441" d="M88 0v129h156l8 1176h-164v129h496v-129h-156l-4 -547l623 547h-175v129h496v-129h-127l-637 -557l649 -619h127v-129h-520v129h168l-604 573l-4 -573h164v-129h-496z" />
<glyph unicode="L" d="M88 0v129h156l8 1176h-164v129h487v-129h-147l-8 -1176h489l13 223h151l-12 -352h-973z" />
<glyph unicode="M" horiz-adv-x="1896" d="M72 0v129h166l12 1176h-178v129h387l461 -1145q8 -20 11 -39t11 -49h4q8 31 11.5 49t11.5 39l461 1145h395v-129h-187l13 -1176h174v-129h-496v129h154l4 1051h-4q-12 -45 -18.5 -66.5t-16.5 -44.5l-434 -1069h-156l-440 1079q-8 16 -13.5 35t-15.5 53h-4l-4 -1038h174 v-129h-483z" />
<glyph unicode="N" horiz-adv-x="1630" d="M61 1305v129h342l781 -1049q18 -25 34.5 -52.5t32.5 -53.5h4l9 1026h-179v129h484v-129h-154l-8 -1305h-145l-811 1077q-29 41 -56 90h-4l-8 -1038h180v-129h-475v129h156l8 1176h-191z" />
<glyph unicode="O" horiz-adv-x="1556" d="M102 692q0 166 44 306.5t130 242.5t212 159.5t290 57.5q168 0 295 -57.5t212 -154.5t127 -227t42 -278q0 -166 -44 -306t-130 -242.5t-212 -160t-290 -57.5q-170 0 -296 57.5t-211 155t-127 227.5t-42 277zM291 717q0 -117 27.5 -226.5t86 -192.5t151.5 -133t222 -50 t222.5 50t151.5 133t86 192.5t28 226.5t-28 226.5t-86 192.5t-151.5 133t-222.5 50t-222 -50t-151.5 -133t-86 -192.5t-27.5 -226.5z" />
<glyph unicode="P" horiz-adv-x="1175" d="M88 0v129h156l8 1176h-164v129h494q111 0 188.5 -15.5t140.5 -50.5q86 -47 136.5 -132t50.5 -208q0 -109 -36 -192.5t-95.5 -140t-138 -85t-164.5 -28.5h-240l-4 -453h182v-129h-514zM424 711h192q147 0 226.5 80.5t79.5 218.5q0 94 -34 157.5t-95 98.5q-53 29 -105.5 34 t-130.5 5h-129z" />
<glyph unicode="Q" horiz-adv-x="1556" d="M102 692q0 166 44 306.5t130 242.5t212 159.5t290 57.5q168 0 295 -57.5t212 -154.5t127 -227t42 -278q0 -127 -27.5 -244.5t-84 -215t-142.5 -169t-205 -104.5v-4q18 -4 41 -11t60 -23.5t89 -42t128 -64.5q57 -25 136 -54.5t163 -29.5q31 0 53.5 3t44.5 5l-6 -129 q-16 -8 -43 -13t-80 -5q-51 0 -98 10t-116 35.5t-170 71.5t-257 118q-29 12 -63.5 29.5t-66.5 33t-57.5 26.5t-33.5 11q-96 0 -204.5 41t-200 128t-152 223.5t-60.5 324.5zM291 717q0 -117 27.5 -226.5t86 -192.5t151.5 -133t222 -50t222.5 50t151.5 133t86 192.5t28 226.5 t-28 226.5t-86 192.5t-151.5 133t-222.5 50t-222 -50t-151.5 -133t-86 -192.5t-27.5 -226.5z" />
<glyph unicode="R" horiz-adv-x="1327" d="M94 0v129h156l8 1176h-164v129h479q96 0 190.5 -11.5t169.5 -49.5t121 -111.5t46 -196.5q0 -90 -29 -158.5t-76 -117t-107.5 -77t-123.5 -34.5v-4q39 -2 86 -38t98 -124l121 -209q33 -55 55.5 -90t41 -53.5t39 -24.5t50.5 -6h64v-129h-84q-55 0 -93 4t-68 18.5t-54.5 42 t-52.5 72.5l-138 236q-47 82 -79.5 133t-63.5 79.5t-63.5 39t-79.5 10.5h-113l-4 -506h166v-129h-498zM430 764h170q68 0 127 15.5t103 50t69 88t25 131.5t-27 128t-72 78.5t-107.5 39t-131.5 10.5h-152z" />
<glyph unicode="S" horiz-adv-x="1214" d="M135 47v315h168v-194q25 -14 58.5 -24.5t72.5 -16.5t77 -9t73 -3q154 0 247 68.5t93 197.5q0 72 -34 118t-89.5 76.5t-126 50t-144 41t-144.5 47t-126 68.5t-89 107.5t-34 161.5q0 66 22.5 137.5t82 131.5t163 99t263.5 39q39 0 91 -5t106.5 -13t103.5 -21.5t84 -27.5 v-289h-160v178q-20 8 -50 15.5t-64 12.5t-67.5 8t-58.5 3q-57 0 -115.5 -12.5t-105.5 -41t-76.5 -76.5t-29.5 -118q0 -92 58 -139t145 -78t189.5 -54.5t189.5 -67.5t145.5 -119.5t58.5 -206.5q0 -119 -46 -201t-123 -133.5t-175 -74t-203 -22.5q-88 0 -155.5 9.5 t-117.5 20.5t-88 23.5t-69 18.5z" />
<glyph unicode="T" horiz-adv-x="1368" d="M41 1083l12 351h1262l12 -351h-151l-13 222h-391l-8 -1176h178v-129h-510v129h156l8 1176h-391l-12 -222h-152z" />
<glyph unicode="U" horiz-adv-x="1554" d="M66 1305v129h495v-129h-153q0 -76 -1 -153t-2.5 -165t-1.5 -190.5v-227.5q0 -133 13.5 -215t58.5 -137q43 -53 121 -77.5t188 -24.5q109 0 190 27.5t130 93.5q45 59 53 153t10 242l4 674h-178v129h496v-129h-158l-4 -777q0 -123 -20.5 -217t-92.5 -180 q-61 -76 -171.5 -116t-264.5 -40q-188 0 -297.5 46.5t-173.5 132.5q-25 35 -41 72.5t-24.5 88t-11.5 116t-3 155.5q0 176 1 364.5t3 354.5h-165z" />
<glyph unicode="V" horiz-adv-x="1478" d="M4 1305v129h496v-129h-160l389 -1072q8 -20 12 -38.5t11 -38.5h4q6 20 10 38.5t12 38.5l385 1072h-172v129h484v-129h-136l-505 -1305h-189l-506 1305h-135z" />
<glyph unicode="W" horiz-adv-x="2199" d="M4 1305v129h496v-129h-162l350 -1088q8 -20 12.5 -38.5t10.5 -39.5h4q6 20 10 39t12 39l316 830l-82 258h-154v129h483v-129h-153l326 -1088q8 -20 12 -38.5t10 -39.5h4q6 20 10 39t13 39l372 1088h-182v129h483v-129h-133l-479 -1305h-201l-256 844h-4l-325 -844h-201 l-446 1305h-146z" />
<glyph unicode="X" horiz-adv-x="1441" d="M53 0v129h129l447 594l-408 582h-147v129h520v-129h-168q16 -16 28.5 -32t24.5 -34l262 -385l285 393q18 27 49 58h-170v129h471v-129h-135l-418 -566l426 -610h140v-129h-508v129h161q-27 31 -45 57l-286 420l-308 -424q-10 -14 -21 -26.5t-24 -26.5h166v-129h-471z" />
<glyph unicode="Y" horiz-adv-x="1478" d="M16 1305v129h496v-129h-150q31 -31 50 -58l354 -491l346 483q12 18 25.5 33.5t29.5 32.5h-176v129h471v-129h-131l-489 -687l-6 -489h161v-129h-487v129h149l7 487l-502 689h-148z" />
<glyph unicode="Z" horiz-adv-x="1327" d="M106 0v121l844 1114q14 18 29.5 35.5t32.5 34.5h-699l-12 -215h-151l12 344h1055v-129l-832 -1102q-14 -18 -30.5 -37t-32.5 -37h735l12 217h152l-13 -346h-1102z" />
<glyph unicode="[" horiz-adv-x="643" d="M209 -514l8 2089h361v-129h-193l-8 -1831h192v-129h-360z" />
<glyph unicode="\" horiz-adv-x="757" d="M16 1542l129 49l670 -1700l-129 -49z" />
<glyph unicode="]" horiz-adv-x="643" d="M66 -385h192l8 1831h-192v129h360l-8 -2089h-360v129z" />
<glyph unicode="^" horiz-adv-x="1228" d="M182 686l371 748h123l371 -748h-140l-293 588l-292 -588h-140z" />
<glyph unicode="_" horiz-adv-x="1024" d="M0 -154h1024v-102h-1024v102z" />
<glyph unicode="`" horiz-adv-x="643" d="M8 1552l107 90l377 -323l-101 -86z" />
<glyph unicode="a" horiz-adv-x="1175" d="M129 279q0 111 55.5 175t147.5 97t213 42t254 9v76q0 150 -58.5 212t-183.5 62q-45 0 -111.5 -9t-123.5 -34v-164h-152v254q88 35 180 58.5t191 23.5q102 0 180 -20.5t131 -65.5t79.5 -117.5t26.5 -177.5q0 -35 -2 -101.5t-4 -147t-4 -165.5t-2 -157h152v-129h-303v43 q0 47 7 101.5t13 84.5h-4q-47 -129 -130 -191.5t-224 -62.5q-45 0 -102.5 11.5t-107.5 44t-84 92t-34 156.5zM297 287q0 -90 58.5 -136.5t140.5 -46.5q43 0 95 15.5t98 56.5t78 116t32 193q-94 0 -184.5 -3t-161 -21.5t-113.5 -59.5t-43 -114z" />
<glyph unicode="b" horiz-adv-x="1214" d="M0 1446v129h348l-4 -555q0 -18 -2 -45t-5 -54.5t-7 -54t-6 -43.5h4q16 55 50 102.5t83 82t110.5 54t130.5 19.5q111 0 191 -40t132 -109.5t77.5 -162.5t25.5 -198q0 -94 -26.5 -199.5t-92 -193.5t-175 -145.5t-275.5 -57.5q-66 0 -114 6.5t-90 16.5t-85 26.5t-100 34.5 l8 1387h-178zM338 164q70 -25 118 -37t107 -12q104 0 178 39t121 101t68.5 144t21.5 168q0 98 -23.5 169t-63.5 117t-93 67.5t-115 21.5q-55 0 -110 -18.5t-99.5 -62.5t-72 -116.5t-29.5 -179.5z" />
<glyph unicode="c" horiz-adv-x="1062" d="M96 528q0 152 49.5 257.5t126 171t171 95t182.5 29.5t174 -12t168 -41v-276h-152v166q-16 6 -39.5 10t-48.5 7t-47.5 5t-40.5 2q-115 0 -186.5 -41t-111.5 -102.5t-54.5 -134t-14.5 -136.5q0 -14 2 -50t14.5 -82t37 -96t69.5 -91t112.5 -67.5t166.5 -26.5 q78 0 145.5 18.5t141.5 40.5l-9 -147q-61 -18 -139 -35t-166 -17q-158 0 -263 47.5t-168.5 125t-91.5 177t-28 203.5z" />
<glyph unicode="d" horiz-adv-x="1290" d="M111 485q0 131 35.5 241t106.5 188.5t176.5 122.5t242.5 44q23 0 52.5 -2t60 -8t59 -15t47.5 -22l4 412h-211v129h379l-8 -1446h157v-129h-325q0 66 6 120t14 93l-4 4q-14 -41 -41.5 -83t-70.5 -78t-102.5 -58.5t-139.5 -22.5q-90 0 -170 32t-139.5 95.5t-94 159.5 t-34.5 223zM287 483q0 -74 17.5 -140.5t54 -117.5t92 -80.5t133.5 -29.5q96 0 155.5 40t93 104.5t46 143t12.5 156.5v336q-14 6 -30.5 13t-39 15.5t-55.5 13.5t-82 5q-188 0 -292.5 -117.5t-104.5 -341.5z" />
<glyph unicode="e" d="M96 526q0 117 32 218.5t93.5 176t152.5 117.5t212 43q104 0 179 -28.5t125 -75.5t80.5 -108.5t46 -124t20.5 -123t5 -107.5h-770q2 -82 22.5 -154.5t68 -127t123 -86t188.5 -31.5q86 0 169 22.5t148 57.5l-6 -146q-29 -14 -72 -27.5t-91 -23.5t-97 -16.5t-88 -6.5 q-250 0 -395.5 137.5t-145.5 413.5zM272 643h594q0 61 -19.5 117.5t-55 99.5t-88 67.5t-117.5 24.5q-68 0 -124 -23.5t-97 -65.5t-65 -98t-28 -122z" />
<glyph unicode="f" horiz-adv-x="757" d="M96 928v129h174v102q0 231 113 331.5t309 100.5q14 0 42 -2t58.5 -5t58.5 -7t42 -10l-6 -140q-25 10 -76 17.5t-96 7.5q-94 0 -148.5 -23.5t-83 -65.5t-37 -98.5t-8.5 -121.5v-86h273l-2 -129h-271l-4 -799h172v-129h-483v129h143l4 799h-174z" />
<glyph unicode="g" d="M111 -250q0 59 22.5 103.5t59 75t85 50t99.5 31.5v4q-63 14 -112.5 52t-49.5 112q0 41 18.5 67.5t46 44t61.5 29t67 19.5v4q-27 6 -72 24.5t-88 58.5t-75 106.5t-32 166.5q0 82 32 153t90.5 122t139 79.5t177.5 28.5q43 0 95 -7t87 -17h393v-129h-94q-10 0 -29.5 1t-41 3 t-41 4t-29.5 2q63 -61 81.5 -127t18.5 -127q0 -88 -35 -157.5t-95.5 -119t-142 -75t-174.5 -25.5q-16 0 -47.5 -5t-63.5 -16.5t-55.5 -30.5t-23.5 -48q0 -41 41 -56.5t141 -31.5l283 -47q61 -10 113.5 -27.5t90.5 -47.5t59.5 -74t21.5 -107q0 -92 -44.5 -159t-116 -110 t-165.5 -64.5t-193 -21.5q-96 0 -186 16.5t-160.5 51.5t-113.5 89t-43 132zM270 -223q0 -61 40 -98t96.5 -56.5t117 -26t99.5 -6.5q49 0 108.5 9.5t111.5 32t87 63.5t35 104q0 35 -15.5 58.5t-40 39t-57.5 23.5t-68 14l-282 41q-8 0 -45 -11t-79 -35.5t-75 -62.5t-33 -89z M301 696q0 -55 21.5 -102t59.5 -83t87 -55.5t104 -19.5q68 0 122.5 20.5t93 57.5t59 85t20.5 103q0 39 -15 83t-49 81t-87 61.5t-129 24.5q-125 0 -206 -69.5t-81 -186.5z" />
<glyph unicode="h" horiz-adv-x="1366" d="M49 1446v129h373l-2 -555q0 -18 -2 -45t-5 -54.5t-7.5 -54t-6.5 -43.5h4q16 59 55.5 107.5t89.5 82.5t110.5 51t119.5 17q109 0 179.5 -33.5t111.5 -89t56.5 -127t15.5 -147.5q0 -135 -4 -283.5t-4 -271.5h155v-129h-459v129h136q0 123 4 250t4 256q0 39 -4 91t-27.5 100 t-72 82t-136.5 34q-55 0 -111.5 -18.5t-101.5 -62.5t-72.5 -116.5t-27.5 -179.5l-6 -436h155v-129h-475v129h152l8 1317h-205z" />
<glyph unicode="i" horiz-adv-x="643" d="M61 928v129h361l-8 -928h168v-129h-504v129h168l8 799h-193zM190 1464q0 53 37 90t90 37t90 -36.5t37 -90.5q0 -53 -36.5 -90t-90.5 -37q-53 0 -90 37t-37 90z" />
<glyph unicode="j" horiz-adv-x="643" d="M-113 -403q92 25 158 64.5t119 102.5q55 66 79.5 181.5t28.5 316.5l9 666h-195v129h363l-9 -793q-2 -133 -13 -228t-31.5 -166t-49.5 -122t-65 -92q-72 -86 -167.5 -129t-201.5 -66zM217 1464q0 53 37 90t90 37t90 -36.5t37 -90.5q0 -53 -37 -90t-90 -37t-90 37t-37 90z " />
<glyph unicode="k" horiz-adv-x="1214" d="M49 1446v129h373l-4 -983l403 332v4h-147v129h459v-129h-109l-438 -357l477 -442h115v-129h-459v129h127v4l-428 408l-4 -412h139v-129h-459v129h152l8 1317h-205z" />
<glyph unicode="l" horiz-adv-x="643" d="M49 1446v129h373l-8 -1446h168v-129h-488v129h152l8 1317h-205z" />
<glyph unicode="m" horiz-adv-x="2048" d="M84 928v129h338q0 -31 -1 -68t-5 -59l-17 -107h4q16 59 55.5 107.5t89.5 82.5t110.5 51t119.5 17q72 0 127.5 -19.5t95 -53t63 -78.5t34.5 -96h4q8 16 26.5 57t58.5 83t105.5 74.5t167.5 32.5q109 0 179.5 -33.5t111.5 -89t56.5 -127t15.5 -147.5q0 -135 -4 -283.5 t-4 -271.5h155v-129h-459v129h136q2 129 5 256t3 256q0 57 -8.5 111.5t-33 96.5t-69.5 67.5t-119 25.5q-51 0 -104 -18.5t-97 -62.5t-73 -116.5t-29 -179.5l-4 -436h152v-129h-461v129h135q2 129 5 256t3 256q0 57 -8 111.5t-32.5 96.5t-69.5 67.5t-119 25.5 q-51 0 -104.5 -18.5t-97.5 -62.5t-72.5 -116.5t-28.5 -179.5l-4 -436h153v-129h-458v129h135l8 799h-170z" />
<glyph unicode="n" horiz-adv-x="1366" d="M84 928v129h338q0 -31 -1 -68t-5 -59l-17 -107h4q16 59 55.5 107.5t89.5 82.5t110.5 51t119.5 17q109 0 179.5 -33.5t111.5 -89t56.5 -127t15.5 -147.5q0 -135 -4 -283.5t-4 -271.5h155v-129h-459v129h136q0 123 4 250t4 256q0 39 -4 91t-27.5 100t-72 82t-136.5 34 q-55 0 -111.5 -18.5t-101.5 -62.5t-72.5 -116.5t-27.5 -179.5l-4 -436h153v-129h-458v129h135l8 799h-170z" />
<glyph unicode="o" horiz-adv-x="1216" d="M96 500q0 125 35 232.5t100.5 184t160.5 120.5t216 44t216.5 -38.5t161 -109.5t100 -167t34.5 -209q0 -127 -34.5 -233.5t-100 -183.5t-161 -121t-216.5 -44t-216 39t-160.5 110t-100.5 166t-35 210zM272 528q0 -86 20.5 -161.5t62.5 -131t105.5 -88t147.5 -32.5 t147.5 32.5t105.5 88t62.5 131t20.5 161.5t-20.5 162t-62.5 131.5t-105.5 88t-147.5 32.5t-147.5 -32.5t-105.5 -88t-62.5 -131.5t-20.5 -162z" />
<glyph unicode="p" horiz-adv-x="1290" d="M61 928v129h349v-37q0 -18 -2 -45t-5.5 -54.5t-7.5 -54t-6 -43.5h4q16 55 50 102.5t83 82t110.5 54t131.5 19.5q111 0 190.5 -40t132 -109.5t78 -162.5t25.5 -198q0 -94 -26.5 -199.5t-92 -193.5t-175 -145.5t-275.5 -57.5q-55 0 -113.5 10.5t-103.5 26.5l-5 -397h177 v-129h-496v129h152l8 1313h-183zM403 164q70 -25 118 -37t108 -12q104 0 178 39t121 101t68.5 144t21.5 168q0 98 -23.5 169t-63.5 117t-93.5 67.5t-114.5 21.5q-55 0 -110.5 -18.5t-99.5 -62.5t-71.5 -116.5t-29.5 -179.5z" />
<glyph unicode="q" horiz-adv-x="1290" d="M111 485q0 135 36.5 245t109.5 188.5t178.5 120.5t242.5 42q96 0 171 -17t146 -40h64l-8 -1409h161v-129h-483v129h154l4 385q0 68 6 121t14 92l-4 4q-16 -59 -52 -104t-84 -76t-104.5 -46.5t-113.5 -15.5q-72 0 -148.5 24t-141 82t-106.5 156.5t-42 247.5zM287 483 q0 -74 17.5 -140.5t54 -117.5t92 -80.5t133.5 -29.5q98 0 158.5 44t93 112.5t44 151.5t11.5 161v311q-14 6 -30.5 13t-39 15.5t-55.5 13.5t-82 5q-188 0 -292.5 -117.5t-104.5 -341.5z" />
<glyph unicode="r" horiz-adv-x="872" d="M74 928v129h348v-58q0 -47 -7 -126.5t-16 -145.5h7q14 57 35.5 119.5t60.5 113t101.5 83t160.5 32.5q6 0 21.5 -1t34 -4t32.5 -6t18 -5l-16 -152q-23 8 -53.5 12.5t-61.5 4.5q-82 0 -141 -36t-97 -93.5t-57.5 -129t-21.5 -141.5l-8 -395h178v-129h-496v129h150l8 799 h-180z" />
<glyph unicode="s" horiz-adv-x="1024" d="M109 764q0 63 22.5 120.5t71.5 101.5t128 69.5t193 25.5q33 0 78 -5t91 -13t90 -20.5t75 -24.5l8 -254h-151l-8 149q-14 12 -39 19.5t-51.5 12.5t-52 6t-44.5 1q-41 0 -84 -7t-77.5 -25.5t-58.5 -50t-24 -78.5q0 -43 18.5 -72t52.5 -49.5t81 -32.5t107 -23 q201 -35 290.5 -102.5t89.5 -198.5q0 -72 -24.5 -133t-76.5 -106t-134 -72t-197 -27q-43 0 -96 5.5t-103.5 13.5t-94.5 20.5t-68 24.5l-8 270h151l8 -157q25 -12 55.5 -20.5t62.5 -14.5t63.5 -9.5t58.5 -3.5q41 0 84 9.5t79 31t58.5 54t22.5 82.5q0 39 -18.5 66.5t-50.5 46 t-72 30.5t-83 22q-106 23 -185 46.5t-132 58.5t-79.5 85t-26.5 128z" />
<glyph unicode="t" horiz-adv-x="796" d="M78 928v129h170l8 258l168 10l-8 -268h332v-129h-334q-4 -133 -6 -265.5t-2 -265.5q0 -57 2 -108t17 -90t48 -61.5t94 -22.5q66 0 120 14t89 29l-6 -133q-41 -20 -106.5 -35t-131.5 -15q-111 0 -171 35t-87.5 87.5t-31.5 112.5t-4 112q0 49 1 127.5t2 165.5t3 171t2 142 h-168z" />
<glyph unicode="u" horiz-adv-x="1327" d="M63 928v129h338q0 -145 -4 -294t-4 -331q0 -57 7.5 -114.5t32 -102.5t70.5 -72.5t124 -27.5q76 0 129 25.5t88 66.5t54.5 93t27.5 106.5t10 104.5t2 89v328h-166v129h338l-8 -928h147v-129h-313q0 31 1 67.5t5 59.5l16 106h-4q-16 -47 -49 -93t-79 -83t-103 -59.5 t-125 -22.5q-115 0 -186.5 34t-113.5 92.5t-57.5 137t-15.5 169.5q0 145 3 271t5 249h-170z" />
<glyph unicode="v" horiz-adv-x="1175" d="M20 928v129h435v-129h-127l243 -678q8 -23 13.5 -45.5t9.5 -44.5h4q4 23 9 45t14 45l249 678h-137v129h422v-129h-117l-364 -928h-168l-367 928h-119z" />
<glyph unicode="w" horiz-adv-x="1781" d="M35 928v129h434v-129h-127l227 -658q10 -29 17.5 -60.5t11.5 -49.5h4q4 18 13.5 50t19.5 60l194 500l-59 158h-117v129h434v-129h-141l223 -658q10 -29 17.5 -60.5t11.5 -49.5h4q4 18 11.5 50t17.5 60l235 658h-141v129h422v-129h-121l-354 -928h-176l-166 485 q-10 29 -17.5 61t-11.5 50h-4q-4 -18 -13.5 -50t-19.5 -61l-192 -485h-168l-350 928h-119z" />
<glyph unicode="x" horiz-adv-x="1214" d="M49 0v129h121l342 410l-315 389h-134v129h459v-129h-135v-4q10 -4 17.5 -12.5t15.5 -18.5l205 -258l206 258q8 10 15.5 18.5t17.5 12.5v4h-147v129h422v-129h-121l-316 -377l336 -422h127v-129h-458v129h141v4q-10 4 -17.5 12.5t-15.5 18.5l-225 282l-223 -282 q-8 -10 -15.5 -18.5t-17.5 -12.5v-4h137v-129h-422z" />
<glyph unicode="y" horiz-adv-x="1175" d="M20 928v129h447v-129h-133l252 -658q10 -29 17 -60.5l11 -49.5h4q4 18 11.5 50t17.5 60l236 658h-150v129h422v-129h-117l-323 -891q-55 -156 -109.5 -265.5t-116 -178t-136 -100.5t-175.5 -32q-39 0 -70.5 5.5t-54.5 13.5v139q18 -6 53 -12t66 -6q90 0 178 60t148 206 l34 86l-387 975h-125z" />
<glyph unicode="z" horiz-adv-x="1099" d="M104 0v123l588 704q23 27 48.5 51.5t50.5 49.5h-500l-8 -170h-152l8 299h852v-117l-608 -731q-18 -23 -38.5 -41t-41.5 -39h524l17 178h151l-16 -307h-875z" />
<glyph unicode="{" horiz-adv-x="643" d="M72 461v139h41q66 0 84 61.5t18 167.5q0 47 1 103.5t1 115t1 115t1 103.5q0 98 19.5 159.5t51.5 94t75 44t92 11.5h114v-129q-57 0 -93 -8t-56.5 -34t-27.5 -73t-7 -123q0 -37 -1 -89t-1 -107.5t-1 -106.5t-1 -88q0 -117 -27.5 -185.5t-115.5 -99.5v-4 q88 -31 115.5 -99.5t27.5 -184.5q0 -37 -1 -89.5t-1 -107.5t-1 -106.5t-1 -87.5q0 -76 9 -123t30.5 -73t58.5 -34t94 -8v-129h-114q-49 0 -93.5 11t-78 44t-54 94.5t-20.5 159.5q0 47 1 103.5t1 115t1 114.5t1 103q0 106 -18.5 168t-83.5 62h-41z" />
<glyph unicode="|" horiz-adv-x="454" d="M158 -512v2048h139v-2048h-139z" />
<glyph unicode="}" horiz-adv-x="643" d="M72 -385q57 0 93 8t56.5 34t27.5 73t7 123q0 37 1 88t1 106t1 107.5t1 89.5q0 57 6 103t21.5 82t43 59.5t72.5 39.5v4q-45 14 -72.5 39t-43 61t-21.5 81t-6 104q0 37 1 88t1 106.5t1 107.5t1 89q0 76 -9 123t-30.5 73t-58.5 34t-94 8v129h114q49 0 93.5 -11.5t78 -44 t54 -94t20.5 -159.5q0 -47 -1 -103.5t-1 -115t-1 -114.5t-1 -104q0 -106 18.5 -167.5t83.5 -61.5h41v-139h-41q-66 0 -84 -61.5t-18 -168.5q0 -47 -1 -103t-1 -114.5t-1 -115t-1 -103.5q0 -98 -19.5 -159.5t-51 -94.5t-74.5 -44t-93 -11h-114v129z" />
<glyph unicode="~" horiz-adv-x="1228" d="M141 477q16 33 39 64.5t53.5 57.5t70.5 42t91 16q59 0 118.5 -21.5t117.5 -47.5q57 -27 108.5 -48.5t96.5 -21.5q59 0 101 45t77 99l73 -103q-23 -33 -48 -64.5t-56 -57t-67.5 -42t-86.5 -16.5q-53 0 -112.5 21.5t-118.5 48.5t-112.5 48t-96.5 21q-63 0 -106 -45t-68 -98 z" />
<glyph unicode="&#xa1;" horiz-adv-x="643" d="M195 975q0 53 36.5 90t90.5 37q53 0 90 -37t37 -90t-37 -90t-90 -37t-90 37t-37 90zM219 -498l21 1092h147l21 -1092h-189z" />
<glyph unicode="&#xa2;" d="M117 528q0 135 40 234.5t105.5 165t147.5 101.5t165 46l5 221h129l-4 -215q29 0 71.5 -4t88.5 -10t88 -16.5t69 -22.5v-276h-139v166q-16 6 -40 11t-48.5 7t-48 4t-41.5 2l-5 -827q76 0 155 18.5t151 40.5l-9 -151q-70 -16 -137 -31t-160 -17l-4 -247h-129l4 254 q-129 14 -216 66t-140 127t-75.5 166t-22.5 187zM293 528q0 -72 16.5 -137t50 -119.5t87 -93.5t124.5 -57l4 815q-88 -16 -143 -59t-86 -101.5t-42 -124t-11 -123.5z" />
<glyph unicode="&#xa3;" d="M49 0v129h158q16 27 28.5 55.5t19.5 66.5t11 91t4 127q0 29 -1 61.5t-2 62.5t-3 54.5t-2 36.5h-186v129h182q-4 35 -6 74t-2 74q0 262 129 379.5t385 117.5q66 0 157 -13t166 -42v-318h-151v207q-47 12 -94 19.5t-97 7.5q-57 0 -115.5 -11.5t-105.5 -48t-76.5 -107.5 t-29.5 -189q0 -29 2 -73t6 -77h303v-129h-299q2 -20 4 -40.5t3 -47.5t1 -61.5v-81.5q0 -143 -20.5 -216t-42.5 -108h551l12 215h152l-13 -344h-1028z" />
<glyph unicode="&#xa4;" d="M55 293l115 115q-53 63 -81 142t-28 167t28 167t81 142l-115 115l92 88l113 -113q63 53 142 81t167 28q176 0 310 -109l112 113l92 -88l-112 -115q51 -63 78.5 -142t27.5 -167t-27.5 -167t-78.5 -142l112 -115l-92 -88l-112 112q-66 -53 -144 -80.5t-166 -27.5 t-166.5 27.5t-142.5 80.5l-113 -112zM201 717q0 -80 28.5 -149.5t78.5 -120t118 -80t143 -29.5q76 0 143.5 29.5t118 80t79 120t28.5 149.5t-28.5 149.5t-79 119.5t-118 80t-143.5 30t-143.5 -30t-117.5 -80t-78.5 -119.5t-28.5 -149.5z" />
<glyph unicode="&#xa5;" d="M12 1305v129h381v-129h-108l305 -549l297 549h-121v129h360v-129h-100l-299 -562h258v-116h-326l-4 -154h330v-117h-330l-4 -227h117v-129h-375v129h107l4 227h-330v117h330l4 154h-334v116h264l-313 562h-113z" />
<glyph unicode="&#xa6;" horiz-adv-x="454" d="M158 358h139v-716h-139v716zM158 666v716h139v-716h-139z" />
<glyph unicode="&#xa7;" d="M145 -61h160v-170q27 -8 83 -31t151 -23q49 0 99 11.5t90 37t65.5 65.5t25.5 95q0 47 -21.5 83t-62.5 65.5t-101.5 58.5t-137.5 64q-72 33 -133.5 64.5t-107.5 70.5t-71.5 89t-25.5 122q0 96 57 183t150 122q-78 35 -133.5 105.5t-55.5 162.5q0 94 35 160.5t95.5 106.5 t140 58.5t169.5 18.5q184 0 359 -65v-254h-152v145q-25 10 -77 22.5t-138 12.5q-78 0 -129 -18.5t-80.5 -45t-42 -59.5t-12.5 -59q0 -45 19.5 -78t55.5 -61.5t87 -55.5t117 -57l104 -49q59 -31 108.5 -61t84 -64.5t54 -82.5t19.5 -116q0 -61 -18.5 -107.5t-46 -80t-60 -58 t-63.5 -45.5q45 -33 79 -62.5t57.5 -61t34.5 -70.5t11 -90q0 -100 -40 -169t-105.5 -112t-148.5 -61.5t-167 -18.5q-74 0 -132 8t-105 20.5t-83 26t-61 21.5v287zM326 582q0 -47 14 -79t40 -56.5t62.5 -45t83.5 -43.5l170 -77q18 12 42 28.5t45.5 41t36 58t14.5 76.5 q0 82 -51.5 125t-120.5 78l-185 92q-72 -37 -111.5 -84t-39.5 -114z" />
<glyph unicode="&#xa8;" horiz-adv-x="643" d="M-23 1430q0 51 35 85.5t86 34.5t86 -34.5t35 -85.5t-34.5 -86t-86.5 -35q-51 0 -86 35t-35 86zM424 1430q0 51 35 85.5t86 34.5t86 -34.5t35 -85.5t-35 -86t-86 -35t-86 35t-35 86z" />
<glyph unicode="&#xa9;" horiz-adv-x="1638" d="M78 717q0 154 58.5 289t158.5 235t235.5 158.5t288.5 58.5q154 0 289 -58.5t235.5 -158.5t159 -235.5t58.5 -288.5q0 -154 -58.5 -289t-159 -235.5t-235.5 -159t-289 -58.5t-289 58.5t-235 159t-158.5 235.5t-58.5 289zM217 717q0 -129 47 -240.5t129 -194.5 t191.5 -130.5t234.5 -47.5t234.5 47.5t191.5 130.5t129 194.5t47 240.5t-47 240.5t-129 194.5t-191.5 130t-234.5 47t-234.5 -47t-191.5 -130t-129 -194.5t-47 -240.5zM424 719q0 102 29.5 185t84 141.5t131 89t173.5 30.5q137 0 236.5 -78.5t119.5 -228.5h-164 q-12 76 -60 122t-136 46q-123 0 -193 -85t-70 -222q0 -141 71 -225t194 -84q74 0 133 43t67 135h164q-25 -150 -127 -234t-250 -84q-90 0 -164.5 32t-128 90.5t-82 141t-28.5 185.5z" />
<glyph unicode="&#xaa;" horiz-adv-x="765" d="M61 977q0 68 36 106.5t96.5 59t140.5 26t168 5.5v53q0 72 -36 105.5t-116 33.5q-29 0 -73 -5t-80 -22v-98h-105v168q61 23 122.5 36t125.5 13q139 0 208.5 -51t69.5 -178q0 -20 -1 -60.5t-3 -86.5t-3 -93t-1 -82h95v-92h-207v21q0 23 5 51t9 47h-4q-20 -53 -74.5 -94 t-148.5 -41q-33 0 -72 6t-73 25.5t-56.5 54.5t-22.5 92zM190 981q0 -41 37 -65.5t82 -24.5q27 0 59.5 8t62.5 30.5t50.5 63t20.5 103.5q-55 0 -110.5 -2t-100.5 -12.5t-73 -34t-28 -66.5z" />
<glyph unicode="&#xab;" horiz-adv-x="1024" d="M117 504v114l268 302l117 -93l-234 -266l234 -266l-117 -92zM522 504v114l269 302l116 -93l-233 -266l233 -266l-116 -92z" />
<glyph unicode="&#xac;" horiz-adv-x="1228" d="M96 653v140h1037v-572h-140v432h-897z" />
<glyph unicode="&#xad;" horiz-adv-x="833" d="M152 485v152h530v-152h-530z" />
<glyph unicode="&#xae;" horiz-adv-x="1638" d="M78 717q0 154 58.5 289t158.5 235t235.5 158.5t288.5 58.5q154 0 289 -58.5t235.5 -158.5t159 -235.5t58.5 -288.5q0 -154 -58.5 -289t-159 -235.5t-235.5 -159t-289 -58.5t-289 58.5t-235 159t-158.5 235.5t-58.5 289zM217 717q0 -129 47 -240.5t129 -194.5 t191.5 -130.5t234.5 -47.5t234.5 47.5t191.5 130.5t129 194.5t47 240.5t-47 240.5t-129 194.5t-191.5 130t-234.5 47t-234.5 -47t-191.5 -130t-129 -194.5t-47 -240.5zM504 293v848h325q158 0 238 -57.5t80 -186.5q0 -57 -17.5 -99t-47 -71t-68.5 -46t-84 -26l227 -362h-160 l-223 356h-131v-356h-139zM643 778h186q102 0 140.5 33t38.5 92t-47.5 84t-131.5 25h-186v-234z" />
<glyph unicode="&#xaf;" horiz-adv-x="643" d="M33 1376v129h577v-129h-577z" />
<glyph unicode="&#xb0;" horiz-adv-x="819" d="M119 1167q0 59 22.5 112.5t62.5 93.5t93 62.5t113 22.5q59 0 112 -22.5t93 -62.5t62.5 -93t22.5 -113q0 -59 -22.5 -112.5t-62.5 -93t-93 -62t-112 -22.5t-112.5 22.5t-93.5 62t-62.5 93t-22.5 112.5zM223 1167q0 -78 54.5 -132t132.5 -54t132 54.5t54 131.5 q0 78 -54.5 132.5t-131.5 54.5q-78 0 -132.5 -54.5t-54.5 -132.5z" />
<glyph unicode="&#xb1;" horiz-adv-x="1228" d="M96 0v139h1037v-139h-1037zM96 555v139h449v342h139v-342h449v-139h-449v-342h-139v342h-449z" />
<glyph unicode="&#xb2;" horiz-adv-x="739" d="M61 1190q0 59 24 108.5t66 85t99 55t125 19.5q143 0 216 -68.5t73 -164.5q0 -66 -24 -124.5t-66 -113.5t-96 -108.5t-116 -108.5l-90 -80v-4h406v-104h-615v80l115 96q53 45 114.5 102.5t113 117.5t85 120.5t33.5 113.5q0 57 -42 93t-117 36q-72 0 -118 -34.5t-57 -116.5 h-129z" />
<glyph unicode="&#xb3;" horiz-adv-x="739" d="M66 1217q0 43 16 87t54 77.5t98.5 55t146.5 21.5q70 0 121 -16.5t83.5 -45t48 -66.5t15.5 -79q0 -57 -21.5 -96t-52 -63.5t-66.5 -37t-63 -14.5v-4q106 -10 172 -60t66 -151q0 -45 -18.5 -91t-60.5 -84t-110.5 -61.5t-168.5 -23.5t-164 14.5t-86 30.5v123 q41 -29 107.5 -45t127.5 -18q117 2 175.5 50t58.5 114q0 49 -26.5 75.5t-66.5 41t-85 17.5t-82 3h-37v104h35q57 0 99 14.5t70.5 38t43 51t14.5 52.5q0 53 -43 88t-102 35q-66 0 -118 -36t-52 -101h-129z" />
<glyph unicode="&#xb4;" horiz-adv-x="643" d="M152 1319l376 323l107 -90l-383 -319z" />
<glyph unicode="&#xb5;" horiz-adv-x="1327" d="M63 928v129h338q0 -145 -4 -294t-4 -331q0 -57 7.5 -114.5t32 -102.5t70.5 -72.5t124 -27.5q76 0 129 25.5t88 66.5t54.5 93t27.5 106.5t10 104.5t2 89v328h-166v129h338l-8 -928h147v-129h-313q0 31 1 67.5t5 59.5l16 106h-4q-16 -47 -49 -93t-79 -83t-103 -59.5 t-125 -22.5q-131 0 -201 70l-4 -584h-176l16 1467h-170z" />
<glyph unicode="&#xb6;" horiz-adv-x="1228" d="M117 1049q0 102 34.5 175.5t96 120t147.5 68t191 21.5h467v-1833h-168v1693h-215v-1693h-168v1075q-80 0 -149.5 27.5t-122 77.5t-83 119t-30.5 149z" />
<glyph unicode="&#xb7;" horiz-adv-x="569" d="M158 588q0 53 36.5 90t90.5 37q53 0 90 -37t37 -90t-37 -90t-90 -37t-90 37t-37 90z" />
<glyph unicode="&#xb8;" horiz-adv-x="643" d="M123 -446l12 106q76 -33 156 -33q20 0 42.5 2t41 9.5t31 22.5t12.5 42q0 47 -26.5 65.5t-74.5 18.5q-14 0 -27.5 -3t-27.5 -7v223h117v-139q41 0 74.5 -8.5t60.5 -26.5q27 -20 41 -50t14 -73q0 -59 -26.5 -94t-66.5 -54.5t-86 -25.5t-83 -6q-25 0 -51.5 3t-52 7t-47 9 t-33.5 12z" />
<glyph unicode="&#xb9;" horiz-adv-x="739" d="M78 1266l309 176h113l-8 -756h170v-104h-486v104h176l8 623l-233 -135z" />
<glyph unicode="&#xba;" horiz-adv-x="741" d="M29 1128q0 68 22.5 128.5t66.5 105.5t107.5 70.5t145.5 25.5t145.5 -25.5t107.5 -70.5t66.5 -105.5t22.5 -128.5t-22.5 -128t-66.5 -105t-107.5 -70.5t-145.5 -25.5t-145.5 25.5t-107.5 70.5t-66.5 105.5t-22.5 127.5zM158 1128q0 -43 13 -85t40 -75.5t67 -55t93 -21.5 t93 21.5t66.5 55t40 75.5t13.5 85t-13.5 85t-40 76t-66.5 55.5t-93 21.5t-93 -21.5t-67 -55.5t-40 -76t-13 -85z" />
<glyph unicode="&#xbb;" horiz-adv-x="1024" d="M117 295l233 266l-233 266l116 93l269 -302v-114l-269 -301zM522 295l234 266l-234 266l117 93l268 -302v-114l-268 -301z" />
<glyph unicode="&#xbc;" horiz-adv-x="1708" d="M66 1266l309 176h112l-8 -756h170v-104h-485v104h176l8 623l-233 -135zM367 -45l921 1593l105 -69l-922 -1594zM911 254v80l398 526h188l-4 -502h164v-104h-164l-4 -150h98v-104h-332v104h95l4 150h-443zM1071 358h283l4 373h-4z" />
<glyph unicode="&#xbd;" horiz-adv-x="1708" d="M66 1266l309 176h112l-8 -756h170v-104h-485v104h176l8 623l-233 -135zM367 -45l921 1593l105 -69l-922 -1594zM1026 608q0 59 23.5 108.5t65.5 85.5t99.5 55.5t124.5 19.5q143 0 216 -69t73 -165q0 -66 -23.5 -124t-65.5 -113.5t-96 -108.5t-116 -109l-90 -79v-5h405 v-104h-614v80l115 96q53 45 114.5 102.5t112.5 118t85 121t34 113.5q0 57 -42 93t-118 36q-72 0 -118 -35t-56 -117h-129z" />
<glyph unicode="&#xbe;" horiz-adv-x="1708" d="M90 1217q0 43 16.5 87t54.5 77.5t98 55t147 21.5q70 0 121 -16.5t83.5 -45t48 -66.5t15.5 -79q0 -57 -21.5 -96t-52.5 -63.5t-66.5 -37t-62.5 -14.5v-4q106 -10 172 -60t66 -151q0 -45 -18.5 -91t-60.5 -84t-110.5 -61.5t-169.5 -23.5q-100 0 -163.5 14.5t-86.5 30.5v123 q41 -29 107.5 -45t128.5 -18q117 2 175 50t58 114q0 49 -26.5 75.5t-66.5 41t-85 17.5t-82 3h-37v104h35q57 0 99.5 14.5t71 38t43 51t14.5 52.5q0 53 -43 88t-103 35q-66 0 -118 -36t-52 -101h-129zM367 -45l921 1593l105 -69l-922 -1594zM911 254v80l398 526h188l-4 -502 h164v-104h-164l-4 -150h98v-104h-332v104h95l4 150h-443zM1071 358h283l4 373h-4z" />
<glyph unicode="&#xbf;" horiz-adv-x="1024" d="M152 -150q0 68 20.5 123.5t53 99.5t72.5 78.5t79 63.5l74 53q82 57 121.5 93t39.5 90q0 12 -8 38.5t-24 42.5l-25 29l137 74q39 -39 63.5 -83t24.5 -106q0 -45 -11 -76.5t-32.5 -58t-53.5 -51t-73 -55.5l-67 -45q-98 -59 -156.5 -131t-58.5 -162q0 -45 15 -88t50 -77 t90.5 -55.5t137.5 -21.5q51 0 100 11.5t96 27.5l12 -137q-78 -27 -148.5 -34t-98.5 -7q-133 0 -216 38t-131.5 93t-65.5 118.5t-17 114.5zM518 975q0 53 37 90t90 37t90 -37t37 -90t-37 -90t-90 -37t-90 37t-37 90z" />
<glyph unicode="&#xc0;" horiz-adv-x="1517" d="M23 0v129h131l532 1305h188l484 -1305h137v-129h-483v129h151l-153 436h-518l-170 -436h172v-129h-471zM446 1806l107 90l377 -323l-101 -86zM543 694h422l-172 477q-12 35 -18.5 56.5t-10.5 42.5h-4q-4 -20 -10.5 -42t-18.5 -57z" />
<glyph unicode="&#xc1;" horiz-adv-x="1517" d="M23 0v129h131l532 1305h188l484 -1305h137v-129h-483v129h151l-153 436h-518l-170 -436h172v-129h-471zM543 694h422l-172 477q-12 35 -18.5 56.5t-10.5 42.5h-4q-4 -20 -10.5 -42t-18.5 -57zM590 1573l377 323l106 -90l-383 -319z" />
<glyph unicode="&#xc2;" horiz-adv-x="1517" d="M23 0v129h131l532 1305h188l484 -1305h137v-129h-483v129h151l-153 436h-518l-170 -436h172v-129h-471zM408 1593l294 283h115l295 -283l-100 -86l-252 252l-252 -252zM543 694h422l-172 477q-12 35 -18.5 56.5t-10.5 42.5h-4q-4 -20 -10.5 -42t-18.5 -57z" />
<glyph unicode="&#xc3;" horiz-adv-x="1517" d="M23 0v129h131l532 1305h188l484 -1305h137v-129h-483v129h151l-153 436h-518l-170 -436h172v-129h-471zM393 1640q41 82 90 123t138 41q55 0 91 -14t79 -39q25 -14 59.5 -30.5t52.5 -16.5q41 0 72 29.5t53 60.5l98 -70q-25 -31 -46 -57.5t-45.5 -47t-55.5 -32.5t-72 -12 q-59 0 -97 16.5t-85 44.5q-23 14 -48.5 26.5t-47.5 12.5q-43 0 -71 -26.5t-50 -69.5zM543 694h422l-172 477q-12 35 -18.5 56.5t-10.5 42.5h-4q-4 -20 -10.5 -42t-18.5 -57z" />
<glyph unicode="&#xc4;" horiz-adv-x="1517" d="M23 0v129h131l532 1305h188l484 -1305h137v-129h-483v129h151l-153 436h-518l-170 -436h172v-129h-471zM432 1683q0 51 35 86t86 35t86 -34.5t35 -86.5q0 -51 -35 -85.5t-86 -34.5t-86 34.5t-35 85.5zM543 694h422l-172 477q-12 35 -18.5 56.5t-10.5 42.5h-4 q-4 -20 -10.5 -42t-18.5 -57zM879 1683q0 51 34.5 86t85.5 35t86 -34.5t35 -86.5q0 -51 -34.5 -85.5t-86.5 -34.5q-51 0 -85.5 34.5t-34.5 85.5z" />
<glyph unicode="&#xc5;" horiz-adv-x="1517" d="M23 0v129h131l532 1305h188l484 -1305h137v-129h-483v129h151l-153 436h-518l-170 -436h172v-129h-471zM543 694h422l-172 477q-12 35 -18.5 56.5t-10.5 42.5h-4q-4 -20 -10.5 -42t-18.5 -57zM575 1677q0 86 59.5 145.5t145.5 59.5t145.5 -59.5t59.5 -145.5t-59.5 -145 t-145.5 -59t-145.5 59t-59.5 145zM692 1677q0 -49 20.5 -80.5t67.5 -31.5t67.5 31.5t20.5 80.5q0 113 -88 113q-45 0 -66.5 -33t-21.5 -80z" />
<glyph unicode="&#xc6;" horiz-adv-x="2009" d="M-6 0v129h129l739 1305h983v-332h-151v203h-447l-4 -541h440v-129h-440l-4 -506h498l12 223h152l-13 -352h-981v129h156l4 506h-492l-276 -506h166v-129h-471zM643 764h424l4 541h-131z" />
<glyph unicode="&#xc7;" horiz-adv-x="1402" d="M102 707q0 150 46.5 286.5t142.5 239t243.5 164t348.5 61.5q57 0 115.5 -6t113.5 -16.5t103.5 -22.5t84.5 -27v-327h-159v225q-37 10 -107.5 22.5t-161.5 12.5q-131 0 -237.5 -38t-183 -112.5t-118.5 -185.5t-42 -256q0 -295 148.5 -453.5t441.5 -158.5q66 0 126 9 t113 21l8 238h160l-8 -348q-29 -12 -73 -22.5t-95 -18.5t-104.5 -13.5t-102.5 -5.5v-114q41 0 75 -8.5t60 -26.5q27 -20 41.5 -50t14.5 -73q0 -59 -27 -94t-66.5 -54.5t-86 -25.5t-82.5 -6q-25 0 -51.5 3t-52 7t-47 9t-34.5 12l13 106q76 -33 155 -33q20 0 43 2t41.5 9.5 t30.5 22.5t12 42q0 47 -26.5 65.5t-73.5 18.5q-14 0 -27.5 -3t-28.5 -7v203q-160 10 -286.5 59t-215.5 140t-136.5 222t-47.5 306z" />
<glyph unicode="&#xc8;" horiz-adv-x="1175" d="M88 0v129h156l8 1176h-164v129h969v-332h-152v203h-477l-4 -504h450v-129h-450l-4 -543h498l12 223h151l-12 -352h-981zM274 1806l107 90l377 -323l-101 -86z" />
<glyph unicode="&#xc9;" horiz-adv-x="1175" d="M88 0v129h156l8 1176h-164v129h969v-332h-152v203h-477l-4 -504h450v-129h-450l-4 -543h498l12 223h151l-12 -352h-981zM418 1573l377 323l106 -90l-383 -319z" />
<glyph unicode="&#xca;" horiz-adv-x="1175" d="M88 0v129h156l8 1176h-164v129h969v-332h-152v203h-477l-4 -504h450v-129h-450l-4 -543h498l12 223h151l-12 -352h-981zM236 1593l294 283h115l295 -283l-100 -86l-252 252l-252 -252z" />
<glyph unicode="&#xcb;" horiz-adv-x="1175" d="M88 0v129h156l8 1176h-164v129h969v-332h-152v203h-477l-4 -504h450v-129h-450l-4 -543h498l12 223h151l-12 -352h-981zM244 1683q0 51 34.5 86t86.5 35q51 0 85.5 -34.5t34.5 -86.5q0 -51 -34.5 -85.5t-85.5 -34.5t-86 34.5t-35 85.5zM690 1683q0 51 35 86t86 35 t86 -34.5t35 -86.5q0 -51 -35 -85.5t-86 -34.5t-86 34.5t-35 85.5z" />
<glyph unicode="&#xcc;" horiz-adv-x="684" d="M29 1806l106 90l377 -323l-100 -86zM94 0v129h156l8 1176h-164v129h496v-129h-156l-8 -1176h164v-129h-496z" />
<glyph unicode="&#xcd;" horiz-adv-x="684" d="M94 0v129h156l8 1176h-164v129h496v-129h-156l-8 -1176h164v-129h-496zM172 1573l377 323l106 -90l-383 -319z" />
<glyph unicode="&#xce;" horiz-adv-x="684" d="M-10 1593l295 283h114l295 -283l-100 -86l-252 252l-252 -252zM94 0v129h156l8 1176h-164v129h496v-129h-156l-8 -1176h164v-129h-496z" />
<glyph unicode="&#xcf;" horiz-adv-x="684" d="M-2 1683q0 51 35 86t86 35t86 -34.5t35 -86.5q0 -51 -35 -85.5t-86 -34.5t-86 34.5t-35 85.5zM94 0v129h156l8 1176h-164v129h496v-129h-156l-8 -1176h164v-129h-496zM444 1683q0 51 35 86t86 35t86 -34.5t35 -86.5q0 -51 -35 -85.5t-86 -34.5t-86 34.5t-35 85.5z" />
<glyph unicode="&#xd0;" horiz-adv-x="1554" d="M88 0v129h156l4 569h-160v129h160l4 478h-164v129h645q160 0 293 -42t227.5 -128t146.5 -217.5t52 -309.5q0 -188 -55.5 -327.5t-157.5 -230.5t-248.5 -135t-326.5 -44h-576zM420 129h221q311 0 463 152q72 72 116 189.5t44 266.5q0 143 -44 257t-122 182 q-90 78 -195.5 103.5t-251.5 25.5h-223l-4 -478h444v-129h-444z" />
<glyph unicode="&#xd1;" horiz-adv-x="1630" d="M61 1305v129h342l781 -1049q18 -25 34.5 -52.5t32.5 -53.5h4l9 1026h-179v129h484v-129h-154l-8 -1305h-145l-811 1077q-29 41 -56 90h-4l-8 -1038h180v-129h-475v129h156l8 1176h-191zM473 1640q41 82 90 123t137 41q55 0 91 -14t79 -39q25 -14 60 -30.5t53 -16.5 q41 0 71.5 29.5t53.5 60.5l98 -70q-25 -31 -46 -57.5t-45.5 -47t-55.5 -32.5t-72 -12q-59 0 -97 16.5t-85 44.5q-23 14 -48.5 26.5t-47.5 12.5q-43 0 -71 -26.5t-50 -69.5z" />
<glyph unicode="&#xd2;" horiz-adv-x="1556" d="M102 692q0 166 44 306.5t130 242.5t212 159.5t290 57.5q168 0 295 -57.5t212 -154.5t127 -227t42 -278q0 -166 -44 -306t-130 -242.5t-212 -160t-290 -57.5q-170 0 -296 57.5t-211 155t-127 227.5t-42 277zM291 717q0 -117 27.5 -226.5t86 -192.5t151.5 -133t222 -50 t222.5 50t151.5 133t86 192.5t28 226.5t-28 226.5t-86 192.5t-151.5 133t-222.5 50t-222 -50t-151.5 -133t-86 -192.5t-27.5 -226.5zM465 1806l106 90l377 -323l-100 -86z" />
<glyph unicode="&#xd3;" horiz-adv-x="1556" d="M102 692q0 166 44 306.5t130 242.5t212 159.5t290 57.5q168 0 295 -57.5t212 -154.5t127 -227t42 -278q0 -166 -44 -306t-130 -242.5t-212 -160t-290 -57.5q-170 0 -296 57.5t-211 155t-127 227.5t-42 277zM291 717q0 -117 27.5 -226.5t86 -192.5t151.5 -133t222 -50 t222.5 50t151.5 133t86 192.5t28 226.5t-28 226.5t-86 192.5t-151.5 133t-222.5 50t-222 -50t-151.5 -133t-86 -192.5t-27.5 -226.5zM608 1573l377 323l107 -90l-383 -319z" />
<glyph unicode="&#xd4;" horiz-adv-x="1556" d="M102 692q0 166 44 306.5t130 242.5t212 159.5t290 57.5q168 0 295 -57.5t212 -154.5t127 -227t42 -278q0 -166 -44 -306t-130 -242.5t-212 -160t-290 -57.5q-170 0 -296 57.5t-211 155t-127 227.5t-42 277zM291 717q0 -117 27.5 -226.5t86 -192.5t151.5 -133t222 -50 t222.5 50t151.5 133t86 192.5t28 226.5t-28 226.5t-86 192.5t-151.5 133t-222.5 50t-222 -50t-151.5 -133t-86 -192.5t-27.5 -226.5zM426 1593l295 283h115l294 -283l-100 -86l-252 252l-252 -252z" />
<glyph unicode="&#xd5;" horiz-adv-x="1556" d="M102 692q0 166 44 306.5t130 242.5t212 159.5t290 57.5q168 0 295 -57.5t212 -154.5t127 -227t42 -278q0 -166 -44 -306t-130 -242.5t-212 -160t-290 -57.5q-170 0 -296 57.5t-211 155t-127 227.5t-42 277zM291 717q0 -117 27.5 -226.5t86 -192.5t151.5 -133t222 -50 t222.5 50t151.5 133t86 192.5t28 226.5t-28 226.5t-86 192.5t-151.5 133t-222.5 50t-222 -50t-151.5 -133t-86 -192.5t-27.5 -226.5zM412 1640q41 82 90 123t137 41q55 0 91 -14t79 -39q25 -14 59.5 -30.5t53.5 -16.5q41 0 71.5 29.5t53.5 60.5l98 -70q-25 -31 -46.5 -57.5 t-46 -47t-55 -32.5t-71.5 -12q-59 0 -97 16.5t-86 44.5q-23 14 -48 26.5t-48 12.5q-43 0 -70.5 -26.5t-50.5 -69.5z" />
<glyph unicode="&#xd6;" horiz-adv-x="1556" d="M102 692q0 166 44 306.5t130 242.5t212 159.5t290 57.5q168 0 295 -57.5t212 -154.5t127 -227t42 -278q0 -166 -44 -306t-130 -242.5t-212 -160t-290 -57.5q-170 0 -296 57.5t-211 155t-127 227.5t-42 277zM291 717q0 -117 27.5 -226.5t86 -192.5t151.5 -133t222 -50 t222.5 50t151.5 133t86 192.5t28 226.5t-28 226.5t-86 192.5t-151.5 133t-222.5 50t-222 -50t-151.5 -133t-86 -192.5t-27.5 -226.5zM434 1683q0 51 35 86t86 35t86 -34.5t35 -86.5q0 -51 -35 -85.5t-86 -34.5t-86 34.5t-35 85.5zM881 1683q0 51 34.5 86t85.5 35t86 -34.5 t35 -86.5q0 -51 -34.5 -85.5t-86.5 -34.5q-51 0 -85.5 34.5t-34.5 85.5z" />
<glyph unicode="&#xd7;" horiz-adv-x="1228" d="M147 145l373 373l-373 373l95 94l372 -373l373 373l94 -94l-372 -373l372 -373l-94 -94l-373 373l-372 -373z" />
<glyph unicode="&#xd8;" horiz-adv-x="1556" d="M102 692q0 166 44 306.5t130 242.5t212 159.5t290 57.5q100 0 185.5 -20.5t154.5 -59.5l146 234l106 -70l-145 -235q117 -98 173 -246t56 -320q0 -166 -44 -306t-130 -242.5t-212 -160t-290 -57.5q-190 0 -332 76l-153 -246l-107 70l154 248q-119 98 -178.5 246.5 t-59.5 322.5zM291 717q0 -129 33.5 -247t105.5 -204l606 981q-51 35 -115.5 53.5t-142.5 18.5q-129 0 -222 -50t-151.5 -133t-86 -192.5t-27.5 -226.5zM528 184q104 -70 250 -69q129 0 222.5 50t151.5 133t86 192.5t28 226.5q0 127 -32 241.5t-101 200.5z" />
<glyph unicode="&#xd9;" horiz-adv-x="1554" d="M66 1305v129h495v-129h-153q0 -76 -1 -153t-2.5 -165t-1.5 -190.5v-227.5q0 -133 13.5 -215t58.5 -137q43 -53 121 -77.5t188 -24.5q109 0 190 27.5t130 93.5q45 59 53 153t10 242l4 674h-178v129h496v-129h-158l-4 -777q0 -123 -20.5 -217t-92.5 -180 q-61 -76 -171.5 -116t-264.5 -40q-188 0 -297.5 46.5t-173.5 132.5q-25 35 -41 72.5t-24.5 88t-11.5 116t-3 155.5q0 176 1 364.5t3 354.5h-165zM465 1806l106 90l377 -323l-100 -86z" />
<glyph unicode="&#xda;" horiz-adv-x="1554" d="M66 1305v129h495v-129h-153q0 -76 -1 -153t-2.5 -165t-1.5 -190.5v-227.5q0 -133 13.5 -215t58.5 -137q43 -53 121 -77.5t188 -24.5q109 0 190 27.5t130 93.5q45 59 53 153t10 242l4 674h-178v129h496v-129h-158l-4 -777q0 -123 -20.5 -217t-92.5 -180 q-61 -76 -171.5 -116t-264.5 -40q-188 0 -297.5 46.5t-173.5 132.5q-25 35 -41 72.5t-24.5 88t-11.5 116t-3 155.5q0 176 1 364.5t3 354.5h-165zM608 1573l377 323l107 -90l-383 -319z" />
<glyph unicode="&#xdb;" horiz-adv-x="1554" d="M66 1305v129h495v-129h-153q0 -76 -1 -153t-2.5 -165t-1.5 -190.5v-227.5q0 -133 13.5 -215t58.5 -137q43 -53 121 -77.5t188 -24.5q109 0 190 27.5t130 93.5q45 59 53 153t10 242l4 674h-178v129h496v-129h-158l-4 -777q0 -123 -20.5 -217t-92.5 -180 q-61 -76 -171.5 -116t-264.5 -40q-188 0 -297.5 46.5t-173.5 132.5q-25 35 -41 72.5t-24.5 88t-11.5 116t-3 155.5q0 176 1 364.5t3 354.5h-165zM426 1593l295 283h115l294 -283l-100 -86l-252 252l-252 -252z" />
<glyph unicode="&#xdc;" horiz-adv-x="1554" d="M66 1305v129h495v-129h-153q0 -76 -1 -153t-2.5 -165t-1.5 -190.5v-227.5q0 -133 13.5 -215t58.5 -137q43 -53 121 -77.5t188 -24.5q109 0 190 27.5t130 93.5q45 59 53 153t10 242l4 674h-178v129h496v-129h-158l-4 -777q0 -123 -20.5 -217t-92.5 -180 q-61 -76 -171.5 -116t-264.5 -40q-188 0 -297.5 46.5t-173.5 132.5q-25 35 -41 72.5t-24.5 88t-11.5 116t-3 155.5q0 176 1 364.5t3 354.5h-165zM434 1683q0 51 35 86t86 35t86 -34.5t35 -86.5q0 -51 -35 -85.5t-86 -34.5t-86 34.5t-35 85.5zM881 1683q0 51 34.5 86t85.5 35 t86 -34.5t35 -86.5q0 -51 -34.5 -85.5t-86.5 -34.5q-51 0 -85.5 34.5t-34.5 85.5z" />
<glyph unicode="&#xdd;" horiz-adv-x="1478" d="M16 1305v129h496v-129h-150q31 -31 50 -58l354 -491l346 483q12 18 25.5 33.5t29.5 32.5h-176v129h471v-129h-131l-489 -687l-6 -489h161v-129h-487v129h149l7 487l-502 689h-148zM610 1573l377 323l107 -90l-383 -319z" />
<glyph unicode="&#xde;" horiz-adv-x="1175" d="M88 0v129h156l8 1176h-164v129h514v-129h-174v-117h154q111 0 188.5 -15.5t140.5 -50.5q86 -47 136.5 -132t50.5 -208q0 -109 -36 -192.5t-95.5 -140t-138 -85t-164.5 -28.5h-244v-207h182v-129h-514zM422 465h194q147 0 226.5 81t79.5 218q0 94 -34 157.5t-95 98.5 q-53 29 -105.5 34t-130.5 5h-131z" />
<glyph unicode="&#xdf;" horiz-adv-x="1441" d="M70 928v129h184v53q0 70 22.5 155t82 156.5t164 120.5t270.5 49q84 0 163.5 -16t142 -53t100.5 -95.5t38 -142.5q0 -63 -14.5 -106t-42 -75t-66.5 -58.5t-88 -57.5q-55 -35 -96 -59.5t-67.5 -47t-40 -45t-13.5 -53.5q0 -59 43 -85.5t117 -53.5l141 -51q51 -18 94 -40 t75 -53.5t49.5 -75.5t17.5 -108q0 -90 -31 -151.5t-84 -101t-126 -57t-157 -17.5q-80 0 -164 10t-137 27v274h139v-160q33 -8 77 -15t93 -7q31 0 70 6t75 23.5t60.5 50t24.5 86.5q0 66 -40 102.5t-99.5 61t-129 44t-129 50t-99.5 83t-40 142.5q0 51 19.5 92t56.5 77t89 71.5 t118 76.5q47 31 75.5 54.5t44 45t20.5 44t5 49.5q0 86 -79.5 136t-215.5 50q-137 0 -210.5 -44t-107.5 -106.5t-40 -130t-6 -116.5l-8 -936h137v-129h-445v129h144l8 799h-184z" />
<glyph unicode="&#xe0;" horiz-adv-x="1175" d="M129 279q0 111 55.5 175t147.5 97t213 42t254 9v76q0 150 -58.5 212t-183.5 62q-45 0 -111.5 -9t-123.5 -34v-164h-152v254q88 35 180 58.5t191 23.5q102 0 180 -20.5t131 -65.5t79.5 -117.5t26.5 -177.5q0 -35 -2 -101.5t-4 -147t-4 -165.5t-2 -157h152v-129h-303v43 q0 47 7 101.5t13 84.5h-4q-47 -129 -130 -191.5t-224 -62.5q-45 0 -102.5 11.5t-107.5 44t-84 92t-34 156.5zM274 1552l107 90l377 -323l-101 -86zM297 287q0 -90 58.5 -136.5t140.5 -46.5q43 0 95 15.5t98 56.5t78 116t32 193q-94 0 -184.5 -3t-161 -21.5t-113.5 -59.5 t-43 -114z" />
<glyph unicode="&#xe1;" horiz-adv-x="1175" d="M129 279q0 111 55.5 175t147.5 97t213 42t254 9v76q0 150 -58.5 212t-183.5 62q-45 0 -111.5 -9t-123.5 -34v-164h-152v254q88 35 180 58.5t191 23.5q102 0 180 -20.5t131 -65.5t79.5 -117.5t26.5 -177.5q0 -35 -2 -101.5t-4 -147t-4 -165.5t-2 -157h152v-129h-303v43 q0 47 7 101.5t13 84.5h-4q-47 -129 -130 -191.5t-224 -62.5q-45 0 -102.5 11.5t-107.5 44t-84 92t-34 156.5zM297 287q0 -90 58.5 -136.5t140.5 -46.5q43 0 95 15.5t98 56.5t78 116t32 193q-94 0 -184.5 -3t-161 -21.5t-113.5 -59.5t-43 -114zM418 1319l377 323l106 -90 l-383 -319z" />
<glyph unicode="&#xe2;" horiz-adv-x="1175" d="M129 279q0 111 55.5 175t147.5 97t213 42t254 9v76q0 150 -58.5 212t-183.5 62q-45 0 -111.5 -9t-123.5 -34v-164h-152v254q88 35 180 58.5t191 23.5q102 0 180 -20.5t131 -65.5t79.5 -117.5t26.5 -177.5q0 -35 -2 -101.5t-4 -147t-4 -165.5t-2 -157h152v-129h-303v43 q0 47 7 101.5t13 84.5h-4q-47 -129 -130 -191.5t-224 -62.5q-45 0 -102.5 11.5t-107.5 44t-84 92t-34 156.5zM211 1339l295 283h115l294 -283l-100 -86l-252 252l-252 -252zM297 287q0 -90 58.5 -136.5t140.5 -46.5q43 0 95 15.5t98 56.5t78 116t32 193q-94 0 -184.5 -3 t-161 -21.5t-113.5 -59.5t-43 -114z" />
<glyph unicode="&#xe3;" horiz-adv-x="1175" d="M129 279q0 111 55.5 175t147.5 97t213 42t254 9v76q0 150 -58.5 212t-183.5 62q-45 0 -111.5 -9t-123.5 -34v-164h-152v254q88 35 180 58.5t191 23.5q102 0 180 -20.5t131 -65.5t79.5 -117.5t26.5 -177.5q0 -35 -2 -101.5t-4 -147t-4 -165.5t-2 -157h152v-129h-303v43 q0 47 7 101.5t13 84.5h-4q-47 -129 -130 -191.5t-224 -62.5q-45 0 -102.5 11.5t-107.5 44t-84 92t-34 156.5zM221 1386q41 82 90 123t138 41q55 0 90.5 -14t78.5 -39q25 -14 60 -30.5t53 -16.5q41 0 72 29.5t53 60.5l98 -70q-25 -31 -46 -57.5t-45.5 -46.5t-55.5 -32.5 t-72 -12.5q-59 0 -97 16.5t-85 44.5q-23 14 -48.5 26.5t-47.5 12.5q-43 0 -71 -26.5t-50 -69.5zM297 287q0 -90 58.5 -136.5t140.5 -46.5q43 0 95 15.5t98 56.5t78 116t32 193q-94 0 -184.5 -3t-161 -21.5t-113.5 -59.5t-43 -114z" />
<glyph unicode="&#xe4;" horiz-adv-x="1175" d="M129 279q0 111 55.5 175t147.5 97t213 42t254 9v76q0 150 -58.5 212t-183.5 62q-45 0 -111.5 -9t-123.5 -34v-164h-152v254q88 35 180 58.5t191 23.5q102 0 180 -20.5t131 -65.5t79.5 -117.5t26.5 -177.5q0 -35 -2 -101.5t-4 -147t-4 -165.5t-2 -157h152v-129h-303v43 q0 47 7 101.5t13 84.5h-4q-47 -129 -130 -191.5t-224 -62.5q-45 0 -102.5 11.5t-107.5 44t-84 92t-34 156.5zM219 1430q0 51 35 85.5t86 34.5t86 -34.5t35 -85.5t-35 -86t-86 -35t-86 35t-35 86zM297 287q0 -90 58.5 -136.5t140.5 -46.5q43 0 95 15.5t98 56.5t78 116t32 193 q-94 0 -184.5 -3t-161 -21.5t-113.5 -59.5t-43 -114zM666 1430q0 51 34.5 85.5t85.5 34.5t86 -34.5t35 -85.5t-34.5 -86t-86.5 -35q-51 0 -85.5 35t-34.5 86z" />
<glyph unicode="&#xe5;" horiz-adv-x="1175" d="M129 279q0 111 55.5 175t147.5 97t213 42t254 9v76q0 150 -58.5 212t-183.5 62q-45 0 -111.5 -9t-123.5 -34v-164h-152v254q88 35 180 58.5t191 23.5q102 0 180 -20.5t131 -65.5t79.5 -117.5t26.5 -177.5q0 -35 -2 -101.5t-4 -147t-4 -165.5t-2 -157h152v-129h-303v43 q0 47 7 101.5t13 84.5h-4q-47 -129 -130 -191.5t-224 -62.5q-45 0 -102.5 11.5t-107.5 44t-84 92t-34 156.5zM297 287q0 -90 58.5 -136.5t140.5 -46.5q43 0 95 15.5t98 56.5t78 116t32 193q-94 0 -184.5 -3t-161 -21.5t-113.5 -59.5t-43 -114zM358 1434q0 86 59.5 145 t145.5 59t145.5 -59t59.5 -145t-59.5 -145.5t-145.5 -59.5t-145.5 59.5t-59.5 145.5zM475 1434q0 -49 20.5 -81t67.5 -32t67.5 31.5t20.5 81.5q0 113 -88 112q-45 0 -66.5 -32.5t-21.5 -79.5z" />
<glyph unicode="&#xe6;" horiz-adv-x="1781" d="M106 281q0 57 16.5 112.5t69 99.5t149.5 72.5t259 34.5l188 8v56q0 162 -71.5 225t-214.5 63q-47 0 -101.5 -10t-109.5 -27l-4 -170h-144l4 267q39 14 87.5 27.5t99.5 22.5t99 14t85 5q53 0 109.5 -9t107.5 -33.5t91 -65.5t61 -105h4q2 16 21.5 52t60.5 72t104.5 62.5 t155.5 26.5q111 0 186.5 -32.5t124.5 -85t76 -117t39 -128t14 -119.5t2 -89l-727 -12q0 -43 6.5 -107.5t40 -126t108.5 -105.5t212 -44q102 0 183 26.5t126 51.5v-152q-76 -29 -168 -47.5t-170 -18.5q-158 0 -271.5 59.5t-160.5 198.5h-4q-18 -59 -54 -107t-85 -82 t-109.5 -51.5t-128.5 -17.5q-78 0 -145.5 19.5t-116.5 58.5t-77 96.5t-28 131.5zM274 287q0 -45 18.5 -79t48.5 -57.5t66.5 -35t71.5 -11.5q143 0 226 89.5t83 298.5l-219 -17q-74 -6 -129 -15t-92 -28.5t-55.5 -54.5t-18.5 -90zM948 614l559 13q-4 45 -14 101t-38 106.5 t-80 84t-142 33.5q-133 0 -209 -82t-76 -256z" />
<glyph unicode="&#xe7;" horiz-adv-x="1062" d="M96 528q0 152 49.5 257.5t126 171t171 95t182.5 29.5t174 -12t168 -41v-276h-152v166q-16 6 -39.5 10t-48.5 7t-47.5 5t-40.5 2q-115 0 -186.5 -41t-111.5 -102.5t-54.5 -134t-14.5 -136.5q0 -14 2 -50t14.5 -82t37 -96t69.5 -91t112.5 -67.5t166.5 -26.5 q78 0 145.5 18.5t141.5 40.5l-9 -147q-16 -10 -56 -19.5t-87 -16.5t-91 -11.5t-69 -4.5v-114q41 0 75 -8.5t60 -26.5q27 -20 41.5 -50t14.5 -73q0 -59 -27 -94t-66.5 -54.5t-86 -25.5t-82.5 -6q-25 0 -51.5 3t-52 7t-47 9t-34.5 12l13 106q76 -33 155 -33q20 0 43 2 t41.5 9.5t30.5 22.5t12 42q0 47 -26.5 65.5t-73.5 18.5q-14 0 -27.5 -3t-28.5 -7v207q-123 18 -206.5 70t-134 126t-73 164t-22.5 184z" />
<glyph unicode="&#xe8;" d="M96 526q0 117 32 218.5t93.5 176t152.5 117.5t212 43q104 0 179 -28.5t125 -75.5t80.5 -108.5t46 -124t20.5 -123t5 -107.5h-770q2 -82 22.5 -154.5t68 -127t123 -86t188.5 -31.5q86 0 169 22.5t148 57.5l-6 -146q-29 -14 -72 -27.5t-91 -23.5t-97 -16.5t-88 -6.5 q-250 0 -395.5 137.5t-145.5 413.5zM256 1552l106 90l377 -323l-100 -86zM272 643h594q0 61 -19.5 117.5t-55 99.5t-88 67.5t-117.5 24.5q-68 0 -124 -23.5t-97 -65.5t-65 -98t-28 -122z" />
<glyph unicode="&#xe9;" d="M96 526q0 117 32 218.5t93.5 176t152.5 117.5t212 43q104 0 179 -28.5t125 -75.5t80.5 -108.5t46 -124t20.5 -123t5 -107.5h-770q2 -82 22.5 -154.5t68 -127t123 -86t188.5 -31.5q86 0 169 22.5t148 57.5l-6 -146q-29 -14 -72 -27.5t-91 -23.5t-97 -16.5t-88 -6.5 q-250 0 -395.5 137.5t-145.5 413.5zM272 643h594q0 61 -19.5 117.5t-55 99.5t-88 67.5t-117.5 24.5q-68 0 -124 -23.5t-97 -65.5t-65 -98t-28 -122zM399 1319l377 323l107 -90l-383 -319z" />
<glyph unicode="&#xea;" d="M96 526q0 117 32 218.5t93.5 176t152.5 117.5t212 43q104 0 179 -28.5t125 -75.5t80.5 -108.5t46 -124t20.5 -123t5 -107.5h-770q2 -82 22.5 -154.5t68 -127t123 -86t188.5 -31.5q86 0 169 22.5t148 57.5l-6 -146q-29 -14 -72 -27.5t-91 -23.5t-97 -16.5t-88 -6.5 q-250 0 -395.5 137.5t-145.5 413.5zM217 1339l295 283h115l295 -283l-101 -86l-252 252l-252 -252zM272 643h594q0 61 -19.5 117.5t-55 99.5t-88 67.5t-117.5 24.5q-68 0 -124 -23.5t-97 -65.5t-65 -98t-28 -122z" />
<glyph unicode="&#xeb;" d="M96 526q0 117 32 218.5t93.5 176t152.5 117.5t212 43q104 0 179 -28.5t125 -75.5t80.5 -108.5t46 -124t20.5 -123t5 -107.5h-770q2 -82 22.5 -154.5t68 -127t123 -86t188.5 -31.5q86 0 169 22.5t148 57.5l-6 -146q-29 -14 -72 -27.5t-91 -23.5t-97 -16.5t-88 -6.5 q-250 0 -395.5 137.5t-145.5 413.5zM225 1430q0 51 35 85.5t86 34.5t86 -34.5t35 -85.5t-35 -86t-86 -35t-86 35t-35 86zM272 643h594q0 61 -19.5 117.5t-55 99.5t-88 67.5t-117.5 24.5q-68 0 -124 -23.5t-97 -65.5t-65 -98t-28 -122zM672 1430q0 51 34.5 85.5t86.5 34.5 q51 0 85.5 -34.5t34.5 -85.5t-34.5 -86t-85.5 -35t-86 35t-35 86z" />
<glyph unicode="&#xec;" horiz-adv-x="643" d="M8 1552l107 90l377 -323l-101 -86zM61 928v129h361l-8 -928h168v-129h-504v129h168l8 799h-193z" />
<glyph unicode="&#xed;" horiz-adv-x="643" d="M61 928v129h361l-8 -928h168v-129h-504v129h168l8 799h-193zM152 1319l376 323l107 -90l-383 -319z" />
<glyph unicode="&#xee;" horiz-adv-x="643" d="M-31 1339l295 283h115l295 -283l-101 -86l-251 252l-252 -252zM61 928v129h361l-8 -928h168v-129h-504v129h168l8 799h-193z" />
<glyph unicode="&#xef;" horiz-adv-x="643" d="M-23 1430q0 51 35 85.5t86 34.5t86 -34.5t35 -85.5t-34.5 -86t-86.5 -35q-51 0 -86 35t-35 86zM61 928v129h361l-8 -928h168v-129h-504v129h168l8 799h-193zM424 1430q0 51 35 85.5t86 34.5t86 -34.5t35 -85.5t-35 -86t-86 -35t-86 35t-35 86z" />
<glyph unicode="&#xf0;" horiz-adv-x="1216" d="M96 500q0 125 35 232.5t100.5 184t160.5 120.5t216 44q76 0 139.5 -25.5t116.5 -68.5l4 4q-43 94 -106.5 179t-140.5 163l-224 -119l-78 93l207 108q-41 33 -83 62.5t-70 46.5l139 67q39 -27 75 -52.5t70 -53.5l199 106l78 -92l-182 -96q172 -166 270 -369t98 -456 q0 -133 -33.5 -244t-99 -191t-161 -124t-218.5 -44q-121 0 -216 39t-160.5 110t-100.5 166t-35 210zM272 528q0 -86 20.5 -161.5t62.5 -131t105.5 -88t147.5 -32.5t147.5 32.5t105.5 88t62.5 131t20.5 161.5t-20.5 162t-62.5 131.5t-105.5 88t-147.5 32.5t-147.5 -32.5 t-105.5 -88t-62.5 -131.5t-20.5 -162z" />
<glyph unicode="&#xf1;" horiz-adv-x="1366" d="M84 928v129h338q0 -31 -1 -68t-5 -59l-17 -107h4q16 59 55.5 107.5t89.5 82.5t110.5 51t119.5 17q109 0 179.5 -33.5t111.5 -89t56.5 -127t15.5 -147.5q0 -135 -4 -283.5t-4 -271.5h155v-129h-459v129h136q0 123 4 250t4 256q0 39 -4 91t-27.5 100t-72 82t-136.5 34 q-55 0 -111.5 -18.5t-101.5 -62.5t-72.5 -116.5t-27.5 -179.5l-4 -436h153v-129h-458v129h135l8 799h-170zM317 1386q41 82 90.5 123t137.5 41q55 0 91 -14t79 -39q25 -14 59.5 -30.5t52.5 -16.5q41 0 72 29.5t53 60.5l99 -70q-25 -31 -46.5 -57.5t-46 -46.5t-55.5 -32.5 t-72 -12.5q-59 0 -97 16.5t-85 44.5q-23 14 -48.5 26.5t-47.5 12.5q-43 0 -70.5 -26.5t-50.5 -69.5z" />
<glyph unicode="&#xf2;" horiz-adv-x="1216" d="M96 500q0 125 35 232.5t100.5 184t160.5 120.5t216 44t216.5 -38.5t161 -109.5t100 -167t34.5 -209q0 -127 -34.5 -233.5t-100 -183.5t-161 -121t-216.5 -44t-216 39t-160.5 110t-100.5 166t-35 210zM272 528q0 -86 20.5 -161.5t62.5 -131t105.5 -88t147.5 -32.5 t147.5 32.5t105.5 88t62.5 131t20.5 161.5t-20.5 162t-62.5 131.5t-105.5 88t-147.5 32.5t-147.5 -32.5t-105.5 -88t-62.5 -131.5t-20.5 -162zM295 1552l106 90l377 -323l-100 -86z" />
<glyph unicode="&#xf3;" horiz-adv-x="1216" d="M96 500q0 125 35 232.5t100.5 184t160.5 120.5t216 44t216.5 -38.5t161 -109.5t100 -167t34.5 -209q0 -127 -34.5 -233.5t-100 -183.5t-161 -121t-216.5 -44t-216 39t-160.5 110t-100.5 166t-35 210zM272 528q0 -86 20.5 -161.5t62.5 -131t105.5 -88t147.5 -32.5 t147.5 32.5t105.5 88t62.5 131t20.5 161.5t-20.5 162t-62.5 131.5t-105.5 88t-147.5 32.5t-147.5 -32.5t-105.5 -88t-62.5 -131.5t-20.5 -162zM438 1319l377 323l107 -90l-383 -319z" />
<glyph unicode="&#xf4;" horiz-adv-x="1216" d="M96 500q0 125 35 232.5t100.5 184t160.5 120.5t216 44t216.5 -38.5t161 -109.5t100 -167t34.5 -209q0 -127 -34.5 -233.5t-100 -183.5t-161 -121t-216.5 -44t-216 39t-160.5 110t-100.5 166t-35 210zM256 1339l295 283h115l295 -283l-101 -86l-252 252l-252 -252z M272 528q0 -86 20.5 -161.5t62.5 -131t105.5 -88t147.5 -32.5t147.5 32.5t105.5 88t62.5 131t20.5 161.5t-20.5 162t-62.5 131.5t-105.5 88t-147.5 32.5t-147.5 -32.5t-105.5 -88t-62.5 -131.5t-20.5 -162z" />
<glyph unicode="&#xf5;" horiz-adv-x="1216" d="M96 500q0 125 35 232.5t100.5 184t160.5 120.5t216 44t216.5 -38.5t161 -109.5t100 -167t34.5 -209q0 -127 -34.5 -233.5t-100 -183.5t-161 -121t-216.5 -44t-216 39t-160.5 110t-100.5 166t-35 210zM242 1386q41 82 90 123t137 41q55 0 91 -14t79 -39q25 -14 59.5 -30.5 t53.5 -16.5q41 0 71.5 29.5t53.5 60.5l98 -70q-25 -31 -46.5 -57.5t-46 -46.5t-55 -32.5t-71.5 -12.5q-59 0 -97 16.5t-86 44.5q-23 14 -48 26.5t-48 12.5q-43 0 -70.5 -26.5t-50.5 -69.5zM272 528q0 -86 20.5 -161.5t62.5 -131t105.5 -88t147.5 -32.5t147.5 32.5t105.5 88 t62.5 131t20.5 161.5t-20.5 162t-62.5 131.5t-105.5 88t-147.5 32.5t-147.5 -32.5t-105.5 -88t-62.5 -131.5t-20.5 -162z" />
<glyph unicode="&#xf6;" horiz-adv-x="1216" d="M96 500q0 125 35 232.5t100.5 184t160.5 120.5t216 44t216.5 -38.5t161 -109.5t100 -167t34.5 -209q0 -127 -34.5 -233.5t-100 -183.5t-161 -121t-216.5 -44t-216 39t-160.5 110t-100.5 166t-35 210zM264 1430q0 51 35 85.5t86 34.5t86 -34.5t35 -85.5t-35 -86t-86 -35 t-86 35t-35 86zM272 528q0 -86 20.5 -161.5t62.5 -131t105.5 -88t147.5 -32.5t147.5 32.5t105.5 88t62.5 131t20.5 161.5t-20.5 162t-62.5 131.5t-105.5 88t-147.5 32.5t-147.5 -32.5t-105.5 -88t-62.5 -131.5t-20.5 -162zM711 1430q0 51 34.5 85.5t85.5 34.5t86 -34.5 t35 -85.5t-34.5 -86t-86.5 -35q-51 0 -85.5 35t-34.5 86z" />
<glyph unicode="&#xf7;" horiz-adv-x="1228" d="M96 449v139h1037v-139h-1037zM487 102q0 53 37 90t90 37t90 -36.5t37 -90.5q0 -53 -36.5 -90t-90.5 -37q-53 0 -90 37t-37 90zM487 934q0 53 37 90t90 37t90 -37t37 -90t-36.5 -90t-90.5 -37q-53 0 -90 37t-37 90z" />
<glyph unicode="&#xf8;" horiz-adv-x="1216" d="M96 500q0 125 35 232.5t100.5 184t160.5 120.5t216 44q129 0 230 -47l116 193l105 -62l-117 -194q86 -70 132 -176.5t46 -237.5q0 -127 -34.5 -233.5t-100 -183.5t-161 -121t-216.5 -44q-135 0 -233 50l-123 -207l-105 65l125 207q-86 68 -131 174.5t-45 235.5zM272 528 q0 -88 21.5 -164.5t64.5 -130.5l404 672q-61 37 -154 37q-84 0 -147.5 -32.5t-105.5 -88t-62.5 -131.5t-20.5 -162zM453 154q68 -39 155 -39q84 0 147.5 32.5t105.5 88t62.5 131t20.5 161.5q0 90 -22.5 167t-65.5 132z" />
<glyph unicode="&#xf9;" horiz-adv-x="1327" d="M63 928v129h338q0 -145 -4 -294t-4 -331q0 -57 7.5 -114.5t32 -102.5t70.5 -72.5t124 -27.5q76 0 129 25.5t88 66.5t54.5 93t27.5 106.5t10 104.5t2 89v328h-166v129h338l-8 -928h147v-129h-313q0 31 1 67.5t5 59.5l16 106h-4q-16 -47 -49 -93t-79 -83t-103 -59.5 t-125 -22.5q-115 0 -186.5 34t-113.5 92.5t-57.5 137t-15.5 169.5q0 145 3 271t5 249h-170zM350 1552l107 90l377 -323l-101 -86z" />
<glyph unicode="&#xfa;" horiz-adv-x="1327" d="M63 928v129h338q0 -145 -4 -294t-4 -331q0 -57 7.5 -114.5t32 -102.5t70.5 -72.5t124 -27.5q76 0 129 25.5t88 66.5t54.5 93t27.5 106.5t10 104.5t2 89v328h-166v129h338l-8 -928h147v-129h-313q0 31 1 67.5t5 59.5l16 106h-4q-16 -47 -49 -93t-79 -83t-103 -59.5 t-125 -22.5q-115 0 -186.5 34t-113.5 92.5t-57.5 137t-15.5 169.5q0 145 3 271t5 249h-170zM494 1319l376 323l107 -90l-383 -319z" />
<glyph unicode="&#xfb;" horiz-adv-x="1327" d="M63 928v129h338q0 -145 -4 -294t-4 -331q0 -57 7.5 -114.5t32 -102.5t70.5 -72.5t124 -27.5q76 0 129 25.5t88 66.5t54.5 93t27.5 106.5t10 104.5t2 89v328h-166v129h338l-8 -928h147v-129h-313q0 31 1 67.5t5 59.5l16 106h-4q-16 -47 -49 -93t-79 -83t-103 -59.5 t-125 -22.5q-115 0 -186.5 34t-113.5 92.5t-57.5 137t-15.5 169.5q0 145 3 271t5 249h-170zM311 1339l295 283h115l295 -283l-101 -86l-251 252l-252 -252z" />
<glyph unicode="&#xfc;" horiz-adv-x="1327" d="M63 928v129h338q0 -145 -4 -294t-4 -331q0 -57 7.5 -114.5t32 -102.5t70.5 -72.5t124 -27.5q76 0 129 25.5t88 66.5t54.5 93t27.5 106.5t10 104.5t2 89v328h-166v129h338l-8 -928h147v-129h-313q0 31 1 67.5t5 59.5l16 106h-4q-16 -47 -49 -93t-79 -83t-103 -59.5 t-125 -22.5q-115 0 -186.5 34t-113.5 92.5t-57.5 137t-15.5 169.5q0 145 3 271t5 249h-170zM319 1430q0 51 35 85.5t86 34.5t86 -34.5t35 -85.5t-34.5 -86t-86.5 -35q-51 0 -86 35t-35 86zM766 1430q0 51 35 85.5t86 34.5t86 -34.5t35 -85.5t-35 -86t-86 -35t-86 35t-35 86z " />
<glyph unicode="&#xfd;" horiz-adv-x="1175" d="M20 928v129h447v-129h-133l252 -658q10 -29 17 -60.5l11 -49.5h4q4 18 11.5 50t17.5 60l236 658h-150v129h422v-129h-117l-323 -891q-55 -156 -109.5 -265.5t-116 -178t-136 -100.5t-175.5 -32q-39 0 -70.5 5.5t-54.5 13.5v139q18 -6 53 -12t66 -6q90 0 178 60t148 206 l34 86l-387 975h-125zM459 1319l377 323l106 -90l-383 -319z" />
<glyph unicode="&#xfe;" horiz-adv-x="1290" d="M66 1446v129h348l-4 -555q0 -18 -2 -45t-5.5 -54.5t-7.5 -54t-6 -43.5h4q16 55 50 102.5t83 82t110.5 54t131.5 19.5q111 0 190.5 -40t132 -109.5t78 -162.5t25.5 -198q0 -94 -26.5 -199.5t-92 -193.5t-175 -145.5t-275.5 -57.5q-55 0 -113.5 10.5t-103.5 26.5l-5 -397 h177v-129h-496v129h152l8 1831h-178zM403 164q70 -25 118 -37t108 -12q104 0 178 39t121 101t68.5 144t21.5 168q0 98 -23.5 169t-63.5 117t-93.5 67.5t-114.5 21.5q-55 0 -110.5 -18.5t-99.5 -62.5t-71.5 -116.5t-29.5 -179.5z" />
<glyph unicode="&#xff;" horiz-adv-x="1175" d="M20 928v129h447v-129h-133l252 -658q10 -29 17 -60.5l11 -49.5h4q4 18 11.5 50t17.5 60l236 658h-150v129h422v-129h-117l-323 -891q-55 -156 -109.5 -265.5t-116 -178t-136 -100.5t-175.5 -32q-39 0 -70.5 5.5t-54.5 13.5v139q18 -6 53 -12t66 -6q90 0 178 60t148 206 l34 86l-387 975h-125zM244 1430q0 51 34.5 85.5t86.5 34.5q51 0 85.5 -34.5t34.5 -85.5t-34.5 -86t-85.5 -35t-86 35t-35 86zM690 1430q0 51 35 85.5t86 34.5t86 -34.5t35 -85.5t-35 -86t-86 -35t-86 35t-35 86z" />
<glyph unicode="&#x152;" horiz-adv-x="2086" d="M109 705q0 174 54 312t158.5 233.5t256 145.5t344.5 50q84 0 161 -6l78 -4t78 -2h715v-332h-152v203h-497l-5 -504h472v-129h-472l-4 -543h519l12 223h151l-12 -352h-735q-86 0 -172 -6q-45 -2 -88 -4t-88 -2q-188 0 -332.5 48t-243 140t-148.5 225.5t-50 303.5zM297 709 q0 -150 43 -260.5t125 -184.5t196.5 -110.5t260.5 -36.5q23 0 54.5 2t61 5t53 4t29.5 1l8 1176q-57 6 -115.5 9t-111.5 3q-139 0 -250.5 -40t-189.5 -118t-121 -190.5t-43 -259.5z" />
<glyph unicode="&#x153;" horiz-adv-x="1857" d="M86 528q0 115 35 216.5t100.5 176t160.5 117.5t216 43q152 0 239 -56t138 -167q12 31 38.5 70t69.5 72.5t104.5 57t143.5 23.5q100 0 172 -28.5t121 -75.5t78 -108.5t44 -124t20.5 -123t5.5 -107.5h-730q0 -45 7.5 -112.5t41 -131t106.5 -109.5t206 -46q86 0 169 22.5 t148 57.5l-6 -146q-29 -14 -72 -27.5t-91 -23.5t-97 -16.5t-88 -6.5q-72 0 -135.5 13.5t-116.5 43t-93 78t-65 115.5h-4q-41 -129 -131 -189.5t-243 -60.5q-121 0 -213.5 39t-153.5 112t-93 174t-32 228zM262 528q0 -78 16.5 -151.5t56.5 -132t103.5 -94t159.5 -35.5 q98 0 154.5 40t85 102t37 141t8.5 159t-9.5 150.5t-40 123t-87 82t-148.5 29.5q-84 0 -147.5 -36t-105.5 -94t-62.5 -133t-20.5 -151zM1042 643h553q0 61 -18 117.5t-53 99.5t-84 67.5t-109 24.5q-72 0 -125 -23.5t-90 -65.5t-55.5 -98t-18.5 -122z" />
<glyph unicode="&#x178;" horiz-adv-x="1478" d="M16 1305v129h496v-129h-150q31 -31 50 -58l354 -491l346 483q12 18 25.5 33.5t29.5 32.5h-176v129h471v-129h-131l-489 -687l-6 -489h161v-129h-487v129h149l7 487l-502 689h-148zM416 1683q0 51 34.5 86t86.5 35q51 0 85.5 -34.5t34.5 -86.5q0 -51 -34.5 -85.5 t-85.5 -34.5t-86 34.5t-35 85.5zM862 1683q0 51 35 86t86 35t86 -34.5t35 -86.5q0 -51 -35 -85.5t-86 -34.5t-86 34.5t-35 85.5z" />
<glyph unicode="&#x2c6;" horiz-adv-x="643" d="M-31 1339l295 283h115l295 -283l-101 -86l-251 252l-252 -252z" />
<glyph unicode="&#x2dc;" horiz-adv-x="643" d="M-45 1386q41 82 90 123t137 41q55 0 91 -14t79 -39q25 -14 59.5 -30.5t53.5 -16.5q41 0 71.5 29.5t53.5 60.5l98 -70q-25 -31 -46 -57.5t-46 -46.5t-55.5 -32.5t-71.5 -12.5q-59 0 -97 16.5t-85 44.5q-23 14 -48.5 26.5t-48.5 12.5q-43 0 -70.5 -26.5t-49.5 -69.5z" />
<glyph unicode="&#x2000;" horiz-adv-x="948" />
<glyph unicode="&#x2001;" horiz-adv-x="1896" />
<glyph unicode="&#x2002;" horiz-adv-x="948" />
<glyph unicode="&#x2003;" horiz-adv-x="1896" />
<glyph unicode="&#x2004;" horiz-adv-x="632" />
<glyph unicode="&#x2005;" horiz-adv-x="474" />
<glyph unicode="&#x2006;" horiz-adv-x="316" />
<glyph unicode="&#x2007;" horiz-adv-x="316" />
<glyph unicode="&#x2008;" horiz-adv-x="237" />
<glyph unicode="&#x2009;" horiz-adv-x="379" />
<glyph unicode="&#x200a;" horiz-adv-x="105" />
<glyph unicode="&#x2010;" horiz-adv-x="833" d="M152 485v152h530v-152h-530z" />
<glyph unicode="&#x2011;" horiz-adv-x="833" d="M152 485v152h530v-152h-530z" />
<glyph unicode="&#x2012;" horiz-adv-x="833" d="M152 485v152h530v-152h-530z" />
<glyph unicode="&#x2013;" horiz-adv-x="1024" d="M0 492v139h1024v-139h-1024z" />
<glyph unicode="&#x2014;" horiz-adv-x="2048" d="M0 492v139h2048v-139h-2048z" />
<glyph unicode="&#x2018;" horiz-adv-x="569" d="M139 1192q0 115 52.5 209t162.5 190l76 -75q-55 -59 -85 -110.5t-30 -102.5q0 -43 14.5 -67t33 -42t33 -38.5t14.5 -55.5q0 -49 -30 -80t-83 -31q-80 0 -119 61.5t-39 141.5z" />
<glyph unicode="&#x2019;" horiz-adv-x="569" d="M141 1065q55 59 85 110.5t30 102.5q0 43 -14.5 66.5t-33 42t-32.5 39t-14 55.5q0 49 29.5 79.5t82.5 30.5q80 0 119 -61.5t39 -140.5q0 -115 -52 -209.5t-163 -190.5z" />
<glyph unicode="&#x201a;" horiz-adv-x="569" d="M139 -295l70 84q23 29 34 57.5t11 75.5q0 33 -10.5 51.5t-32.5 42.5q-25 29 -38 48.5t-13 54.5q0 49 32.5 79.5t83.5 30.5q78 0 116 -61.5t38 -140.5q0 -106 -38 -187.5t-113 -152.5l-62 -60z" />
<glyph unicode="&#x201c;" horiz-adv-x="909" d="M113 1192q0 115 52 209t163 190l75 -75q-55 -59 -84.5 -110.5t-29.5 -102.5q0 -43 14 -67t32.5 -42t33 -38.5t14.5 -55.5q0 -49 -29.5 -80t-83.5 -31q-80 0 -118.5 61.5t-38.5 141.5zM502 1192q0 115 52 209t163 190l76 -75q-55 -59 -85 -110.5t-30 -102.5 q0 -43 14.5 -67t32.5 -42t32.5 -38.5t14.5 -55.5q0 -49 -29.5 -80t-83.5 -31q-80 0 -118.5 61.5t-38.5 141.5z" />
<glyph unicode="&#x201d;" horiz-adv-x="909" d="M117 1065q55 59 84.5 110.5t29.5 102.5q0 43 -14 66.5t-32.5 42t-33 39t-14.5 55.5q0 49 30 79.5t83 30.5q80 0 119 -61.5t39 -140.5q0 -115 -52.5 -209.5t-162.5 -190.5zM506 1065q55 59 85 110.5t30 102.5q0 43 -14.5 66.5t-33 42t-33 39t-14.5 55.5q0 49 30 79.5 t83 30.5q80 0 119 -61.5t39 -140.5q0 -115 -52.5 -209.5t-162.5 -190.5z" />
<glyph unicode="&#x201e;" horiz-adv-x="909" d="M115 -295l69 84q23 29 34 57.5t11 75.5q0 33 -10 51.5t-33 42.5q-25 29 -38 48.5t-13 54.5q0 49 33 79.5t84 30.5q78 0 116 -61.5t38 -140.5q0 -106 -38 -187.5t-114 -152.5l-61 -60zM504 -295l69 84q23 29 34 57.5t11 75.5q0 33 -10 51.5t-33 42.5q-25 29 -38 48.5 t-13 54.5q0 49 33 79.5t84 30.5q78 0 116 -61.5t38 -140.5q0 -106 -38 -187.5t-114 -152.5l-61 -60z" />
<glyph unicode="&#x2022;" horiz-adv-x="1024" d="M154 717q0 74 27.5 139.5t76.5 114.5t114.5 76.5t139.5 27.5t139.5 -27.5t114.5 -76.5t76.5 -114.5t27.5 -139.5t-27.5 -139.5t-76.5 -114.5t-114.5 -77t-139.5 -28t-139.5 28t-114.5 77t-76.5 114.5t-27.5 139.5z" />
<glyph unicode="&#x2026;" horiz-adv-x="2048" d="M215 102q0 53 37 90t90 37t90 -36.5t37 -90.5q0 -53 -37 -90t-90 -37t-90 37t-37 90zM897 102q0 53 37 90t90 37t90 -36.5t37 -90.5q0 -53 -37 -90t-90 -37t-90 37t-37 90zM1579 102q0 53 37 90t90 37t90 -36.5t37 -90.5q0 -53 -37 -90t-90 -37t-90 37t-37 90z" />
<glyph unicode="&#x202f;" horiz-adv-x="379" />
<glyph unicode="&#x2039;" horiz-adv-x="606" d="M111 504v114l268 302l117 -93l-234 -266l234 -266l-117 -92z" />
<glyph unicode="&#x203a;" horiz-adv-x="606" d="M111 295l233 266l-233 266l116 93l269 -302v-114l-269 -301z" />
<glyph unicode="&#x205f;" horiz-adv-x="474" />
<glyph unicode="&#x20ac;" d="M31 545l59 129h70q-2 6 -2 18v21q0 23 1 42t3 42h-131l59 129h92q25 119 78 215t133 164.5t183.5 105.5t226.5 37q182 0 360 -72l-4 -252h-131v152q-104 35 -221 35q-188 0 -298 -105.5t-153 -279.5h680l-57 -129h-643q-2 -10 -3 -20.5t-1 -20.5v-41v-21q0 -14 2 -20h604 l-59 -129h-531q20 -94 56 -172t90.5 -134.5t131 -87t181.5 -30.5q88 0 173 17.5t167 49.5l-4 -147q-86 -35 -170 -47t-176 -12q-270 0 -430 149.5t-197 413.5h-139z" />
<glyph unicode="&#x2122;" horiz-adv-x="2027" d="M84 1294v140h680v-140h-252v-712h-176v712h-252zM928 582v852h248l229 -607l229 607h248v-852h-168v671h-4l-248 -671h-114l-248 671h-4v-671h-168z" />
<glyph unicode="&#x25fc;" horiz-adv-x="1054" d="M0 0v1055h1055v-1055h-1055z" />
<glyph unicode="&#xfb01;" horiz-adv-x="1290" d="M70 928v129h188l4 149q2 94 37 167t94.5 121t141 72.5t178.5 24.5q49 0 86 -3t65.5 -8t52 -10t46.5 -9v-140q-51 14 -104.5 22.5t-115.5 8.5q-63 0 -118.5 -11t-98.5 -40t-68.5 -78t-27.5 -127l-4 -139h635l-8 -928h168v-129h-484v129h148l8 799h-467l-4 -799h172v-129 h-483v129h143l4 799h-188z" />
<glyph unicode="&#xfb02;" horiz-adv-x="1327" d="M70 928v129h188l4 149q2 94 37 167t94.5 121t141 72.5t178.5 24.5q150 0 235 -28l144 12l-9 -1446h158v-129h-471v129h145l9 1305q-35 8 -83 13t-98 5q-63 0 -119.5 -11t-99.5 -40t-68.5 -78t-25.5 -127l-4 -139h287v-129h-287l-4 -799h172v-129h-483v129h143l4 799h-188 z" />
</font>
</defs>
</svg>
